<?xml version="1.0" standalone="no"?>
<!DOCTYPE svg PUBLIC "-//W3C//DTD SVG 20010904//EN"
 "http://www.w3.org/TR/2001/REC-SVG-20010904/DTD/svg10.dtd">
<svg version="1.0" xmlns="http://www.w3.org/2000/svg"
 width="2154.000000pt" height="1320.000000pt" viewBox="0 0 2154.000000 1320.000000"
 preserveAspectRatio="xMidYMid meet">

<g transform="translate(0.000000,1320.000000) scale(0.100000,-0.100000)"
fill="#000000" stroke="none">
<path d="M12875 13186 c-3 -9 -8 -24 -11 -33 -25 -72 -88 -375 -115 -553 -24
-155 -35 -260 -44 -420 -3 -69 -10 -186 -15 -260 -6 -74 -10 -220 -10 -325 l0
-190 -63 -1 c-42 0 -75 -7 -102 -21 -33 -17 -51 -20 -94 -15 l-53 7 -82 160
c-44 88 -90 174 -100 190 -11 17 -49 75 -85 130 -247 380 -535 638 -876 784
-86 36 -288 98 -341 104 -21 2 -48 8 -59 13 -25 11 -541 12 -684 1 -57 -4
-136 -12 -175 -18 -39 -5 -85 -12 -102 -14 -48 -6 -132 -35 -145 -51 -17 -20
43 -121 100 -167 25 -21 71 -59 102 -85 320 -270 440 -365 599 -472 52 -36
125 -87 161 -115 37 -27 80 -58 95 -67 16 -10 74 -47 129 -82 118 -77 280
-169 385 -218 117 -56 210 -98 216 -98 3 0 24 -8 47 -19 83 -37 254 -100 342
-126 50 -15 97 -29 105 -33 8 -3 19 -4 24 -3 5 1 22 -1 39 -5 36 -8 18 -23
-28 -24 -16 0 -82 -19 -145 -41 -63 -22 -151 -53 -196 -68 -116 -41 -274 -126
-362 -197 -131 -105 -261 -249 -333 -369 -46 -75 -148 -291 -178 -375 -7 -19
-17 -44 -22 -55 -4 -11 -29 -85 -55 -165 -89 -274 -246 -636 -337 -772 -41
-61 -122 -128 -155 -128 -11 0 -39 7 -62 15 -24 8 -45 13 -48 10 -3 -3 -3 -6
-1 -8 2 -2 24 -15 48 -31 l43 -28 -28 -15 c-16 -8 -36 -21 -44 -28 -9 -8 -81
-47 -160 -87 -138 -70 -335 -147 -465 -183 -244 -66 -445 -114 -505 -121 -14
-1 -72 -9 -130 -18 -117 -17 -264 -28 -385 -31 -107 -1 -390 17 -485 32 -39 6
-61 9 -135 18 -100 13 -433 102 -533 143 l-63 25 -67 -22 c-78 -27 -232 -101
-232 -112 0 -19 232 -189 342 -249 l53 -30 -105 -1 c-58 0 -114 -2 -125 -4
-11 -1 -60 -6 -110 -9 -97 -7 -98 -7 -285 -33 -133 -19 -293 -20 -395 -2 -74
12 -215 54 -275 81 -185 83 -323 160 -391 220 -47 41 -99 136 -119 215 -22 84
-24 120 -11 155 17 49 22 80 11 76 -21 -7 -75 -178 -83 -267 -10 -104 44 -258
121 -343 99 -109 353 -260 495 -294 53 -12 12 -23 -118 -30 -71 -3 -133 -8
-136 -10 -3 -2 -89 -4 -190 -5 -243 -2 -549 -28 -681 -58 -24 -5 -77 -17 -118
-27 -201 -44 -494 -153 -688 -256 -157 -82 -284 -179 -442 -337 -266 -267
-438 -529 -531 -806 -32 -95 -33 -107 -34 -250 0 -99 5 -167 14 -200 20 -70
80 -188 155 -302 35 -54 71 -114 81 -133 47 -94 142 -165 233 -173 53 -5 56 8
3 17 -55 8 -124 50 -170 102 -42 48 -87 148 -94 210 -3 21 -11 59 -18 84 -18
64 -16 296 4 395 21 107 61 240 92 310 30 69 102 159 217 272 84 82 240 214
246 208 2 -2 -14 -27 -36 -57 -47 -62 -100 -167 -131 -256 -55 -162 -1 -387
114 -470 l50 -36 -46 50 c-73 77 -83 103 -76 204 3 47 14 112 25 145 40 129
216 340 367 440 l81 54 64 -9 c100 -14 509 -15 522 -2 7 7 21 12 31 12 11 0
50 9 86 19 134 38 130 40 73 -26 -242 -283 -466 -738 -527 -1072 -8 -42 -17
-87 -20 -101 -10 -48 -22 -243 -30 -480 -11 -371 78 -660 291 -935 120 -156
310 -308 505 -403 89 -44 286 -112 324 -112 13 0 28 -7 35 -15 7 -8 28 -17 49
-21 20 -4 45 -9 56 -11 33 -7 245 -3 308 6 32 4 59 5 61 2 2 -3 7 -40 10 -81
21 -228 112 -498 221 -656 58 -85 168 -206 230 -254 95 -73 244 -140 405 -184
111 -30 210 -35 295 -17 90 19 231 90 304 152 75 64 61 55 191 119 135 67 251
144 319 211 59 59 111 130 111 152 0 8 9 40 20 72 24 69 25 101 5 148 -13 31
-23 39 -67 52 -66 19 -158 19 -205 0 -48 -20 -39 -25 24 -13 62 12 136 3 155
-19 8 -10 13 -43 13 -92 -1 -69 -4 -82 -39 -141 -70 -120 -126 -157 -321 -211
-187 -52 -307 -67 -490 -64 -156 2 -289 21 -357 50 -44 18 -131 94 -172 150
-157 213 -241 463 -232 694 l3 84 59 47 c81 64 156 141 179 184 11 20 23 36
28 36 4 0 31 -18 60 -40 115 -86 245 -143 425 -185 110 -25 249 -45 323 -45
l65 0 48 -55 c55 -64 173 -156 268 -208 137 -76 371 -156 502 -172 21 -2 47
-7 58 -11 11 -3 27 1 37 10 14 13 24 14 52 5 38 -11 294 -15 349 -5 140 26
240 77 333 168 l69 67 93 -62 c52 -34 95 -69 98 -77 2 -8 0 -26 -4 -40 -4 -14
-7 -46 -8 -71 -1 -52 15 -72 86 -109 23 -12 49 -32 57 -45 9 -14 40 -39 69
-57 29 -18 62 -39 73 -46 10 -6 26 -15 34 -19 8 -4 17 -10 20 -13 3 -4 38 -24
78 -45 l72 -39 -6 -35 c-3 -20 -16 -44 -27 -54 -87 -71 -96 -76 -100 -64 -4
14 -100 -16 -129 -41 -14 -12 -20 -12 -33 -2 -9 7 -19 10 -23 6 -8 -8 7 -18
83 -56 47 -23 50 -27 48 -60 -2 -31 0 -28 16 20 20 59 67 112 141 159 40 26
50 28 98 22 37 -5 55 -4 63 5 13 16 100 266 95 272 -5 4 -46 -85 -46 -99 0
-13 -43 -99 -49 -99 -37 1 -201 81 -324 157 -77 48 -62 62 34 33 89 -28 148
-54 210 -91 25 -16 49 -29 53 -29 16 0 2 45 -30 96 -65 102 -102 193 -114 282
-13 98 -6 159 25 227 36 78 65 100 134 100 57 0 58 0 108 -55 28 -30 87 -100
133 -155 45 -55 103 -121 127 -146 24 -25 55 -69 68 -96 l23 -51 -25 -43 c-13
-24 -42 -65 -64 -91 -21 -26 -39 -55 -39 -65 0 -12 -28 -39 -77 -73 -43 -30
-125 -103 -183 -161 -120 -120 -111 -110 -179 -215 -40 -61 -50 -85 -46 -104
5 -19 -2 -14 -37 25 -81 93 -304 310 -358 347 -70 49 -102 52 -455 53 -418 0
-448 -2 -496 -37 -49 -35 -59 -60 -66 -167 -5 -72 -10 -88 -29 -105 -20 -18
-24 -33 -29 -116 -3 -52 -7 -123 -10 -157 -2 -34 -7 -67 -10 -74 -4 -6 -4 -55
0 -109 4 -64 3 -105 -4 -119 -12 -21 -19 -122 -26 -361 -5 -181 -14 -423 -20
-565 -3 -55 -7 -158 -10 -230 -2 -71 -7 -184 -10 -250 -18 -440 -19 -402 5
-432 12 -16 48 -68 80 -118 75 -115 142 -191 189 -212 29 -14 63 -17 182 -15
l146 2 -14 -67 c-7 -38 -15 -78 -18 -90 l-5 -23 465 0 c303 0 465 3 465 10 0
6 -7 10 -16 10 -11 0 -14 5 -10 16 3 9 6 20 6 25 0 6 5 7 11 3 6 -3 15 0 21 7
6 9 7 -1 3 -29 l-7 -42 210 0 210 0 7 33 c13 58 15 117 3 117 -6 0 -9 2 -6 5
5 5 68 -14 68 -21 0 -2 -4 -12 -10 -22 -5 -9 -13 -38 -18 -65 l-10 -47 396 2
396 3 18 50 c9 28 47 108 84 179 85 168 124 263 168 411 48 164 105 409 118
513 8 65 18 98 40 131 15 25 28 50 28 57 0 22 26 61 63 96 l37 35 46 -54 c44
-51 49 -63 71 -166 15 -70 28 -170 33 -267 17 -316 53 -506 142 -759 28 -80
57 -165 66 -189 8 -23 20 -42 28 -42 10 0 6 17 -13 68 -118 307 -176 561 -190
825 l-6 127 64 68 c36 37 74 78 85 92 42 52 72 74 87 61 8 -6 41 -16 73 -22
33 -5 67 -13 77 -15 13 -4 46 22 121 95 l102 101 60 0 c32 0 86 -4 118 -10 60
-10 60 -10 110 29 28 21 85 62 126 91 41 29 77 57 78 62 2 4 8 8 13 8 6 0 7
-5 3 -12 -5 -8 0 -9 14 -6 12 4 22 2 22 -3 0 -5 10 -9 23 -9 12 0 59 -11 104
-24 95 -27 84 -31 193 64 88 77 109 84 227 77 l98 -6 -119 21 -119 21 -26 -30
c-14 -16 -56 -58 -93 -93 l-68 -63 -52 16 c-29 8 -86 25 -126 37 -40 11 -70
25 -67 30 6 10 -26 1 -35 -10 -3 -3 -58 -48 -124 -100 l-118 -93 -127 17 -126
16 -35 -42 c-19 -24 -62 -71 -94 -106 -56 -59 -62 -62 -95 -57 -82 14 -174 75
-112 75 11 0 23 5 27 12 5 8 2 9 -12 4 -41 -16 -2 7 92 52 109 53 168 75 324
122 446 135 428 127 451 193 10 26 20 66 24 88 4 21 8 39 10 39 2 0 16 -5 32
-10 l28 -10 -26 23 c-28 26 -29 23 17 176 l25 83 30 -28 c33 -32 99 -126 99
-142 0 -5 14 -25 31 -43 17 -19 47 -58 66 -88 l34 -53 72 7 c40 4 77 11 82 15
6 5 57 25 113 45 98 35 104 36 122 20 19 -17 18 -19 -17 -64 -20 -25 -45 -54
-56 -63 -15 -14 -16 -18 -4 -18 8 0 33 25 56 55 23 30 45 55 50 55 13 0 101
-51 101 -59 0 -3 13 -65 29 -136 57 -255 101 -622 101 -856 0 -110 -2 -120
-29 -172 -16 -30 -48 -79 -71 -108 -64 -82 -254 -272 -357 -356 -51 -42 -93
-77 -93 -79 0 -2 147 -4 326 -4 l326 0 -6 58 c-2 31 -8 93 -11 137 -4 44 -18
134 -30 200 -16 83 -25 174 -29 295 -9 267 -17 420 -26 472 -4 27 -4 48 -1 48
3 0 26 -40 51 -88 61 -119 152 -209 279 -277 102 -54 103 -56 127 -182 5 -23
17 -39 39 -52 31 -18 33 -22 28 -60 -3 -23 -1 -67 6 -98 6 -32 13 -74 15 -93
3 -19 12 -73 21 -120 9 -47 22 -118 29 -158 7 -40 15 -75 18 -77 3 -3 145 -4
316 -3 l310 3 -116 104 c-64 57 -128 120 -142 140 -15 20 -62 74 -104 121 -43
46 -85 94 -93 107 -9 13 -21 23 -29 23 -16 0 -69 68 -61 77 4 3 21 -5 39 -19
66 -49 148 -62 189 -29 l24 19 -91 94 c-52 53 -109 125 -133 167 -40 67 -42
76 -37 124 32 270 15 361 -100 539 -62 96 -123 152 -197 179 -75 27 -87 36
-87 61 0 11 -20 43 -45 70 l-45 50 -1 107 c0 58 -2 131 -5 161 -2 30 -6 90 -8
132 l-3 78 37 -2 c20 -1 42 2 49 6 10 6 11 72 7 290 -4 154 -9 295 -11 311 -3
17 -7 44 -9 60 -15 116 -38 182 -68 194 -13 5 -45 25 -73 45 -27 19 -52 32
-55 27 -3 -5 -32 4 -65 20 -33 15 -127 59 -209 98 l-149 70 -32 83 c-18 46
-46 117 -63 158 -42 104 -112 393 -98 407 3 3 19 -12 37 -32 36 -41 160 -128
199 -140 14 -4 43 -17 65 -28 102 -51 282 -75 430 -56 112 14 118 14 265 4
l106 -8 79 39 c53 26 103 61 150 106 l71 67 19 -30 c26 -39 119 -118 194 -163
58 -35 145 -68 216 -82 19 -3 38 -10 40 -15 8 -12 161 0 225 17 123 35 277
138 381 256 115 130 243 345 278 468 7 25 17 58 22 74 5 16 9 40 9 52 0 39 18
27 29 -19 5 -23 19 -82 31 -132 52 -217 60 -465 21 -650 -46 -215 -118 -363
-237 -482 -102 -102 -121 -111 -287 -128 -135 -13 -345 122 -417 268 -29 60
-57 178 -45 197 3 5 1 11 -5 15 -6 4 -10 -17 -10 -59 0 -114 69 -273 168 -387
83 -94 256 -192 369 -209 299 -43 551 54 758 293 75 87 95 116 143 213 48 96
88 214 103 303 6 36 11 145 11 241 0 142 -4 195 -22 280 -12 58 -28 134 -35
170 -18 87 -78 271 -131 400 -62 153 -126 270 -236 432 -50 75 -59 95 -64 145
-19 218 -102 456 -232 666 -57 91 -66 102 -82 92 -5 -3 13 -38 39 -78 87 -130
138 -236 188 -391 25 -78 74 -296 67 -296 -2 0 -21 27 -44 60 -22 32 -115 148
-207 257 -92 109 -189 227 -216 263 -27 36 -61 77 -75 92 -14 15 -24 30 -21
32 2 2 29 11 59 20 30 8 87 24 125 35 95 26 251 83 311 114 70 36 172 114 180
139 8 27 6 146 -3 161 -3 6 -5 32 -4 59 1 26 -3 56 -8 66 -6 11 -15 50 -21 88
-5 38 -12 79 -15 90 -4 18 1 22 33 28 56 8 120 59 143 112 22 49 20 62 -28
204 -31 92 -46 119 -39 70 3 -19 -4 -6 -15 30 -93 297 -236 581 -420 837 -32
45 -59 86 -59 92 0 10 61 31 92 31 23 0 88 -58 88 -79 0 -9 6 -25 14 -36 41
-59 139 -321 218 -579 47 -155 47 -107 0 65 -43 155 -70 236 -128 369 -20 47
-47 113 -61 147 -14 36 -38 74 -55 88 -16 14 -27 29 -24 34 8 12 -21 22 -47
16 -12 -3 -54 -7 -93 -9 l-71 -4 -7 106 c-8 126 -22 206 -39 221 -9 7 -34 3
-82 -13 -109 -36 -125 -38 -125 -22 0 7 -12 40 -26 72 -54 123 -62 141 -83
199 -13 33 -34 83 -47 112 -27 58 -30 74 -11 68 6 -2 20 6 29 20 19 26 25 9
-95 278 -11 27 -44 71 -72 98 -45 44 -105 138 -105 166 0 6 -7 16 -16 23 -8 8
-21 27 -29 44 -7 17 -34 53 -59 81 -40 43 -50 58 -45 68 1 1 -12 24 -30 51
-17 28 -31 56 -31 63 0 7 -5 13 -12 13 -6 0 -9 3 -5 6 3 3 -5 18 -18 32 -13
14 -22 29 -19 34 3 4 0 8 -5 8 -6 0 -23 19 -38 42 -16 24 -40 55 -55 70 -16
15 -28 32 -28 37 0 27 -245 247 -385 347 -38 27 -114 93 -167 147 -54 53 -104
97 -111 97 -6 -1 6 -18 29 -38 23 -20 67 -66 100 -102 32 -36 72 -73 89 -84
91 -55 245 -186 362 -306 120 -124 212 -246 273 -362 29 -57 72 -125 95 -153
61 -74 84 -109 100 -157 l15 -43 -53 55 c-29 30 -78 84 -109 120 -37 42 -61
61 -67 55 -5 -6 -22 -55 -36 -110 -48 -184 -191 -434 -289 -505 -42 -31 -56
-28 -56 16 0 25 -62 243 -87 306 -21 53 -46 75 -126 113 l-57 27 41 50 42 49
23 -38 c13 -21 23 -33 24 -28 0 6 -9 24 -19 42 l-20 31 75 141 c73 137 74 141
74 213 0 112 -25 156 -173 302 -147 146 -245 224 -253 203 -10 -27 -97 -65
-166 -72 -66 -7 -66 -7 -73 -41 -3 -19 -5 -80 -4 -136 2 -93 -2 -136 -18 -191
-7 -28 -68 -50 -94 -36 -15 8 -19 8 -15 0 12 -18 -10 -12 -28 8 -14 15 -16 27
-10 53 8 33 12 98 6 98 -2 0 -12 -9 -24 -20 -33 -31 -38 -28 -98 55 -24 33
-76 95 -117 137 -76 81 -84 99 -62 155 29 75 42 273 18 273 -5 0 -9 8 -9 17 0
15 -1 15 -14 -2 -9 -12 -20 -16 -36 -12 -15 4 -33 -1 -51 -13 -15 -11 -64 -33
-110 -49 -82 -29 -86 -30 -169 -18 -85 12 -85 12 -60 30 28 19 44 22 34 6 -4
-7 1 -7 16 1 21 11 18 15 -66 77 -92 68 -260 154 -376 194 -38 12 -68 26 -68
31 0 4 4 8 9 8 5 0 68 40 139 89 270 184 496 390 624 568 113 158 157 268 165
413 5 91 4 97 -23 135 -15 22 -68 108 -117 190 -67 113 -311 488 -389 599 -4
6 -10 8 -13 5 -3 -4 35 -68 85 -142 49 -75 90 -139 90 -142 0 -7 -64 -35 -79
-35 -6 0 -31 30 -57 68 -26 37 -73 101 -104 142 -31 41 -59 83 -63 93 -4 11
-17 17 -35 17 -27 0 -30 -5 -55 -82 -35 -109 -57 -200 -57 -231 0 -60 -22 -72
-59 -33 l-22 23 25 119 c14 65 31 136 37 157 7 20 9 40 6 43 -4 4 -9 -1 -12
-10z m-2215 -468 c32 -53 28 -58 -47 -58 -157 0 -621 -42 -651 -59 -15 -9 -14
-11 8 -20 47 -20 500 -419 500 -440 -1 -9 -11 -35 -23 -59 l-23 -43 -124 98
c-395 311 -570 471 -570 522 0 5 39 18 88 29 135 31 189 38 397 48 72 4 131 7
132 8 1 0 67 3 147 4 l145 4 21 -34z m982 -356 c2 -4 24 -25 51 -46 26 -21 47
-42 47 -47 0 -4 25 -32 56 -61 31 -29 65 -66 76 -83 20 -30 20 -30 -11 3 -17
18 -36 30 -41 27 -6 -4 -8 -10 -5 -15 3 -5 1 -11 -5 -15 -6 -4 -8 -12 -4 -18
3 -7 -10 5 -28 25 -19 20 -40 49 -48 65 -8 15 -36 61 -63 101 -26 39 -43 72
-38 72 5 0 11 -3 13 -8z m175 -464 c12 -16 43 -99 43 -116 0 -6 -31 -27 -69
-47 l-70 -35 -20 26 c-32 40 -56 113 -44 133 10 17 94 50 129 51 12 0 26 -6
31 -12z m190 -169 c18 -24 42 -56 53 -70 21 -25 52 -133 64 -220 l7 -46 -53
-6 c-29 -4 -55 -3 -59 1 -3 4 -12 48 -19 97 -13 93 -33 155 -48 155 -5 0 -44
-26 -88 -58 -113 -83 -231 -162 -242 -162 -6 0 -12 -6 -15 -14 -9 -22 -44 -39
-53 -24 -4 6 -3 8 3 5 6 -4 18 -1 28 6 15 12 11 15 -35 30 -40 13 -56 14 -67
6 -11 -9 -12 -8 -7 5 7 18 47 32 63 21 6 -3 8 0 5 9 -9 23 302 252 358 263 31
6 31 16 -3 108 -28 75 -24 76 29 4 26 -36 61 -86 79 -110z m477 -849 c50 -11
92 -24 95 -28 3 -5 26 -21 51 -35 58 -33 91 -69 125 -132 56 -106 70 -237 36
-336 -30 -87 -155 -283 -198 -309 -36 -22 -164 -64 -278 -91 -64 -16 -124 -22
-210 -23 -115 -1 -122 0 -168 27 -27 16 -46 31 -43 35 4 3 12 0 18 -6 17 -17
29 -15 22 3 -3 8 -27 28 -53 45 -27 16 -57 40 -67 52 -23 26 -8 18 57 -29 51
-36 59 -39 58 -20 0 6 -21 26 -46 42 -25 17 -53 41 -62 55 -12 17 3 10 54 -27
38 -28 74 -49 79 -45 5 3 -1 13 -14 21 -53 35 -94 78 -165 175 -41 55 -85 112
-98 126 -50 51 -53 71 -33 210 6 39 41 112 70 146 36 44 293 150 313 130 3 -3
0 -7 -8 -10 -8 -2 -45 -15 -84 -29 l-69 -24 41 -21 c22 -12 42 -20 45 -19 2 1
-5 -6 -17 -17 -11 -10 -42 -39 -70 -65 l-50 -46 3 -77 2 -78 -25 12 c-32 14
-65 1 -84 -35 -12 -23 -10 -29 23 -81 57 -89 163 -194 142 -141 -6 17 9 21 19
5 4 -6 11 -8 17 -4 5 4 0 17 -15 33 -28 31 -67 86 -67 96 0 4 16 -12 35 -35
20 -24 55 -56 78 -73 42 -30 42 -30 17 -3 -26 29 -38 85 -13 64 16 -13 17 -32
1 -22 -7 4 -8 3 -4 -5 4 -6 11 -9 15 -6 5 2 21 -7 35 -20 15 -14 33 -25 40
-25 7 0 30 -8 52 -19 21 -10 69 -24 105 -31 60 -12 70 -11 135 10 180 59 267
122 298 218 25 76 24 206 -2 257 -27 54 -53 76 -142 121 l-75 38 -125 -3
c-113 -2 -123 -1 -105 13 23 17 14 32 -25 39 -23 4 -22 4 5 6 17 1 37 6 45 12
21 15 176 3 284 -21z m790 -49 c3 -4 -18 -11 -47 -15 -102 -12 -132 -4 -46 13
60 12 87 13 93 2z m190 -43 c58 -24 129 -73 166 -114 30 -33 12 -23 -54 29
-65 50 -108 72 -179 88 -69 15 -91 35 -27 25 24 -4 66 -16 94 -28z m-404 2 c0
-5 -5 -10 -11 -10 -5 0 -7 5 -4 10 3 6 8 10 11 10 2 0 4 -4 4 -10z m90 -50 c8
-5 21 -30 28 -56 12 -43 11 -50 -6 -73 -10 -15 -31 -27 -45 -29 -15 -2 -27 -8
-27 -13 0 -17 71 -153 91 -175 14 -15 28 -19 54 -16 59 7 66 44 20 107 -39 53
-49 82 -14 40 75 -90 166 -177 233 -223 108 -74 215 -129 289 -148 l67 -18 29
32 c21 22 28 38 24 53 -4 13 -2 20 3 16 17 -10 16 -83 -1 -97 -19 -16 -19 -40
0 -40 8 0 15 4 15 10 0 5 10 -1 23 -13 13 -12 20 -26 16 -31 -5 -5 -68 -9
-140 -9 l-132 1 -113 57 c-229 115 -374 231 -439 352 l-40 72 -46 -6 c-43 -5
-48 -3 -71 28 -38 51 -41 78 -12 128 13 24 22 46 19 49 -6 7 -7 5 -35 -38 -19
-31 -20 -25 -3 18 3 6 1 12 -5 12 -11 0 -25 -58 -16 -71 3 -5 -22 -9 -54 -9
-58 0 -60 1 -72 33 -7 17 -20 38 -28 45 -16 12 8 14 230 16 31 1 60 5 64 9 9
9 69 1 94 -13z m189 -104 c20 -22 21 -25 6 -40 -30 -29 -95 -13 -95 24 0 41
56 51 89 16z m-855 2 c-6 -10 -4 -10 8 0 9 8 19 9 22 4 9 -15 -18 -32 -33 -23
-12 8 -8 31 5 31 3 0 2 -6 -2 -12z m-356 -37 c16 -33 17 -38 4 -37 -9 2 -18 8
-20 15 -3 8 -9 6 -18 -7 -17 -24 -58 -33 -95 -20 -70 24 -25 88 61 88 48 0 50
-2 68 -39z m725 33 c17 -6 10 -53 -9 -61 -20 -8 -17 -23 5 -23 10 0 22 7 25
16 4 9 9 14 12 11 7 -7 -16 -87 -32 -111 -16 -23 -20 -15 -29 63 -3 30 -9 67
-12 82 -6 30 6 36 40 23z m-308 -34 c-3 -5 -11 -10 -16 -10 -6 0 -7 5 -4 10 3
6 11 10 16 10 6 0 7 -4 4 -10z m-366 -44 c9 -11 9 -16 -1 -22 -7 -4 -10 -4 -6
1 4 4 3 14 -3 22 -6 7 -9 13 -6 13 2 0 10 -6 16 -14z m1209 -18 c-4 -29 -38
-38 -38 -10 0 19 11 29 33 31 5 1 7 -9 5 -21z m-1230 -12 c1 -18 -5 -25 -25
-31 -16 -4 -29 -2 -34 6 -12 20 1 38 29 42 15 2 27 5 27 6 0 0 2 -10 3 -23z
m342 -27 c9 -16 14 -18 26 -8 24 20 22 6 -3 -20 -22 -23 -23 -23 -23 -4 0 22
-23 47 -33 36 -4 -3 -7 -1 -7 5 0 20 29 13 40 -9z m-1451 -84 c-17 -35 -46
-106 -64 -157 -38 -103 -47 -108 -14 -7 22 69 94 229 103 229 3 0 -9 -29 -25
-65z m1917 38 c18 -16 34 -34 34 -41 0 -9 -14 -3 -37 16 -21 16 -47 34 -58 40
-19 11 -19 11 3 12 13 0 39 -12 58 -27z m-1417 -60 c-30 -39 -87 -93 -98 -93
-15 0 -14 -11 4 -82 9 -33 13 -68 10 -78 -6 -18 -7 -18 -35 -2 -33 19 -35 34
-21 112 5 24 14 46 20 48 6 2 11 9 11 15 0 15 92 97 109 97 11 0 11 -3 0 -17z
m2184 -64 c5 -20 -17 -27 -28 -9 -3 6 -1 10 6 10 8 0 6 6 -4 18 -10 10 -17 22
-17 27 0 14 38 -26 43 -46z m-396 -129 c86 -52 99 -57 88 -39 -4 5 37 -12 92
-39 54 -26 109 -53 123 -59 l25 -11 -30 -12 c-16 -7 -37 -16 -45 -20 -9 -4
-30 2 -54 17 -36 23 -40 24 -55 8 -15 -15 -14 -19 17 -44 29 -25 31 -30 17
-41 -12 -10 -21 -10 -47 1 -79 31 -295 189 -308 225 -5 13 -12 24 -15 24 -4 0
-3 -4 0 -10 12 -19 -2 -10 -26 17 l-24 28 24 -20 24 -20 -8 25 c-8 25 -8 25
14 6 15 -14 21 -15 21 -5 0 7 14 -3 31 -24 39 -47 81 -71 98 -54 15 15 14 34
-4 44 -24 14 -115 104 -127 127 -6 11 10 0 37 -26 26 -26 86 -70 132 -98z
m-1482 80 c10 -11 16 -20 13 -20 -3 0 -13 9 -23 20 -10 11 -16 20 -13 20 3 0
13 -9 23 -20z m-495 -84 c-46 -45 -43 -30 5 26 17 19 32 30 34 25 2 -5 -16
-28 -39 -51z m230 -1 c0 -12 -28 -35 -44 -35 -13 0 -5 24 12 36 22 18 32 17
32 -1z m-659 -153 c-11 -48 -23 -109 -26 -136 -3 -27 -7 -51 -9 -55 -11 -17
-20 -160 -19 -289 1 -105 -2 -141 -10 -136 -7 3 -4 -1 5 -8 11 -10 18 -33 20
-76 2 -34 7 -62 11 -62 4 0 5 -17 2 -37 -4 -28 -3 -33 4 -18 l10 20 -1 -20 c0
-11 -3 -31 -7 -45 -6 -23 -9 -20 -24 27 -9 28 -17 66 -17 83 0 17 -6 41 -14
53 -8 12 -17 56 -20 97 -4 41 -9 98 -12 125 -6 52 9 55 19 5 3 -14 4 9 3 50
-3 83 11 183 49 340 14 58 31 127 38 155 6 27 13 41 15 32 2 -10 -6 -57 -17
-105z m2019 87 c11 -7 4 -8 -25 -3 -50 8 -58 14 -19 14 16 0 36 -5 44 -11z
m93 -2 c4 3 7 1 7 -5 0 -7 9 -12 20 -12 11 0 48 -27 82 -61 71 -68 64 -68 -27
1 -34 26 -74 50 -89 54 -14 3 -26 13 -26 22 0 13 3 14 13 5 8 -6 17 -8 20 -4z
m-1190 -116 c-2 -3 -16 8 -31 24 l-27 28 31 -24 c17 -13 30 -26 27 -28z m-596
-23 c-2 -13 -4 -5 -4 17 -1 22 1 32 4 23 2 -10 2 -28 0 -40z m10 -70 c-3 -8
-6 -5 -6 6 -1 11 2 17 5 13 3 -3 4 -12 1 -19z m1476 -43 c-3 -9 -8 -14 -10
-11 -3 3 -2 9 2 15 9 16 15 13 8 -4z m-804 -41 c14 -12 -39 -1 -55 11 -17 13
-16 14 16 3 19 -6 37 -13 39 -14z m2043 -15 c60 -24 86 -40 118 -76 22 -25 38
-49 35 -52 -2 -4 21 -19 51 -34 69 -34 157 -37 224 -6 62 28 155 18 236 -25
56 -30 60 -34 86 -103 47 -122 78 -242 84 -327 4 -44 10 -85 15 -90 5 -6 9
-20 9 -31 0 -12 7 -45 16 -74 13 -44 21 -55 49 -67 19 -8 53 -14 75 -14 40 0
42 -2 65 -52 21 -46 69 -216 81 -288 3 -14 11 -56 18 -95 25 -129 27 -143 16
-150 -7 -4 -8 -44 -4 -121 7 -113 7 -115 -18 -142 -52 -55 -63 -90 -61 -187 1
-49 6 -112 11 -140 10 -46 6 -61 -42 -210 -29 -88 -59 -182 -66 -210 -7 -27
-14 -52 -16 -53 -5 -8 -333 220 -439 305 -135 107 -203 175 -325 323 -157 190
-247 313 -319 438 l-42 72 34 58 c37 60 87 177 108 250 7 23 13 42 14 42 0 0
26 -24 56 -53 65 -63 176 -136 244 -161 55 -20 251 -33 273 -18 7 5 10 16 6
26 -5 13 -10 14 -20 5 -20 -16 -82 -2 -136 31 -118 74 -202 237 -296 580 -42
153 -111 564 -97 578 3 3 13 -1 22 -9 24 -19 63 -40 63 -34 0 2 -26 21 -57 41
-68 43 -134 63 -218 65 -33 1 -63 7 -67 13 -5 8 -11 7 -20 -2 -6 -6 -19 -12
-27 -12 -14 0 -14 1 -1 10 13 8 12 10 -2 10 -10 0 -18 -7 -18 -15 0 -12 -15
-15 -72 -15 -39 0 -69 2 -66 5 3 3 47 17 99 30 120 32 207 28 321 -16z m-1256
12 c0 -11 -3 -18 -7 -15 -9 5 -20 -26 -13 -37 3 -5 10 -6 16 -3 5 4 2 -5 -7
-20 -20 -30 -30 -35 -15 -7 6 12 6 22 1 25 -5 3 -12 -6 -15 -20 -4 -15 -9 -24
-13 -21 -5 5 42 117 49 117 2 0 4 -9 4 -19z m339 -58 c4 -21 20 -71 35 -111
28 -73 28 -74 7 -68 -12 3 -46 10 -75 16 -28 7 -52 14 -52 16 0 20 64 193 70
189 4 -3 11 -22 15 -42z m-1151 -21 c3 -5 29 -7 58 -4 29 2 49 0 45 -5 -11
-11 -118 -12 -111 -1 3 4 -5 8 -18 8 -18 0 -20 -2 -8 -10 12 -8 11 -10 -7 -10
-16 0 -21 4 -17 15 6 16 49 21 58 7z m696 -64 c0 -16 -4 -28 -10 -28 -5 0 -10
19 -10 43 0 31 3 38 10 27 5 -8 10 -27 10 -42z m-600 -28 c26 0 31 -6 56 -72
15 -40 44 -111 66 -157 21 -46 38 -88 38 -94 0 -19 -118 2 -173 30 -74 39
-183 38 -315 -3 -14 -5 -13 -3 2 10 11 9 15 16 9 16 -6 0 -16 -6 -22 -13 -6
-8 -30 -19 -53 -26 -24 -7 -52 -15 -63 -18 -11 -3 16 32 63 82 46 49 108 123
138 166 l55 78 57 4 c31 2 70 2 86 0 16 -1 41 -3 56 -3z m1063 -126 l88 -17
29 -56 c16 -31 47 -85 69 -121 37 -61 39 -66 21 -74 -13 -6 -34 -4 -62 7 -51
19 -140 33 -120 19 9 -6 -5 -11 -44 -15 -64 -7 -158 -50 -214 -98 -22 -19 -28
-28 -15 -24 11 4 29 9 40 12 18 4 18 3 3 -7 -25 -16 -23 -33 2 -20 25 13 25
15 -5 -44 -32 -63 -33 -96 -4 -89 16 4 20 2 17 -8 -3 -8 -13 -13 -23 -11 -15
3 -17 -2 -12 -33 6 -37 22 -65 38 -65 5 0 9 6 9 13 0 8 9 22 19 31 15 13 24
15 39 7 10 -5 29 -7 40 -4 12 3 29 0 37 -7 18 -15 19 -7 3 20 -10 15 -9 24 2
44 13 25 50 37 50 16 0 -5 7 -10 15 -10 8 0 15 -7 15 -15 0 -8 -5 -15 -10 -15
-6 0 -13 7 -16 15 -7 16 -39 20 -48 6 -3 -5 7 -11 22 -14 15 -3 33 -16 41 -28
12 -21 11 -25 -14 -47 -23 -19 -26 -26 -14 -33 8 -5 25 -8 39 -7 20 2 32 17
60 73 29 59 34 81 35 137 0 38 3 68 6 68 10 0 95 -94 108 -119 15 -27 2 -66
-37 -119 -14 -18 -22 -35 -19 -38 8 -9 72 42 101 80 23 30 96 83 96 70 0 -3
-15 -40 -34 -82 -18 -43 -50 -129 -71 -192 -21 -63 -43 -121 -49 -129 -16 -21
-90 -51 -133 -55 -52 -4 -101 21 -123 64 -16 29 -19 31 -20 13 -1 -61 136
-120 204 -89 16 8 17 7 8 -11 -6 -11 -8 -24 -4 -28 4 -5 1 -4 -7 0 -11 6 -13
4 -8 -8 4 -10 1 -17 -6 -17 -9 0 -8 -3 1 -9 11 -7 11 -9 0 -14 -40 -15 -102
25 -161 104 -10 13 -6 0 10 -30 32 -61 93 -108 155 -118 27 -4 38 -11 38 -23
0 -23 -20 -30 -101 -37 -76 -6 -122 6 -162 42 -15 14 -27 23 -27 18 0 -4 -7 2
-16 13 -14 18 -15 18 -4 -3 6 -13 15 -23 21 -23 6 0 8 -4 5 -9 -3 -5 12 -35
34 -67 39 -60 87 -104 134 -126 14 -6 26 -15 26 -20 0 -19 -96 -111 -159 -152
-36 -24 -109 -65 -161 -90 -347 -168 -418 -199 -461 -204 -86 -8 -204 45 -459
206 -177 113 -255 169 -370 268 -122 105 -164 149 -157 166 3 8 25 20 48 27
54 16 104 45 147 85 38 35 41 49 9 37 -39 -15 -76 -1 -112 44 -19 23 -35 45
-35 49 0 3 26 6 58 6 110 1 164 24 204 88 24 39 20 40 -18 7 -22 -19 -40 -25
-77 -25 -59 0 -93 17 -140 69 -48 53 -64 86 -87 179 -17 67 -27 182 -16 182
25 0 81 -38 101 -68 22 -33 75 -82 89 -82 2 0 -11 28 -30 63 -18 34 -34 72
-34 84 0 20 79 101 122 124 22 12 22 10 2 -30 -21 -42 -11 -150 12 -130 11 9
17 9 28 0 10 -8 16 -9 21 -1 9 15 25 12 31 -5 7 -16 -44 -68 -58 -59 -5 3 -4
12 3 20 14 17 8 27 -13 19 -37 -14 23 -88 62 -78 16 4 18 9 9 19 -14 17 -3 51
23 65 25 13 102 3 118 -16 6 -7 10 -26 8 -41 -2 -21 2 -29 15 -32 11 -2 16 2
15 10 -2 8 9 14 29 16 45 4 62 37 70 131 4 60 2 86 -10 110 -8 17 -14 31 -12
31 2 0 25 -18 51 -40 53 -47 72 -45 28 1 -29 32 -17 29 34 -7 20 -15 22 -15
22 0 0 10 8 16 22 16 20 0 19 3 -12 35 l-34 35 32 2 c18 0 37 1 44 2 6 1 38
-44 70 -99 33 -55 78 -122 101 -149 l41 -49 -44 -38 c-45 -39 -71 -52 -123
-63 -42 -10 -24 -23 41 -31 55 -6 105 4 182 39 10 4 29 -8 56 -34 55 -53 99
-70 183 -70 76 0 96 11 53 29 -64 27 -114 97 -115 162 -1 32 7 46 65 108 84
91 155 198 221 332 35 73 56 105 67 103 8 -1 55 -10 103 -20z m-1568 -252
c-46 -40 -105 -83 -105 -76 1 11 92 84 104 84 6 0 6 -3 1 -8z m1041 -41 c-3
-5 2 -19 12 -32 13 -15 21 -19 26 -10 4 7 2 10 -5 9 -6 -2 -14 4 -16 12 -4 13
-3 13 6 0 6 -8 11 -11 11 -6 0 5 7 3 15 -4 8 -7 15 -18 15 -24 0 -6 -5 -4 -10
4 -5 8 -10 10 -10 4 0 -20 12 -23 36 -7 15 10 24 11 25 4 1 -6 2 -17 3 -23 3
-21 -27 -81 -58 -115 -40 -45 -170 -124 -226 -139 -112 -28 -109 -28 -61 4 50
34 88 86 140 192 39 80 70 122 83 114 4 -3 5 2 2 10 -3 9 -1 16 6 16 6 0 9 -4
6 -9z m-748 -26 c1 -11 -3 -28 -11 -38 -11 -16 -16 -17 -40 -6 -45 21 -28 73
23 67 16 -2 26 -10 28 -23z m1622 -60 c51 -51 62 -67 52 -77 -10 -10 -21 -9
-55 3 -23 8 -41 20 -40 26 1 6 -15 31 -37 56 -22 24 -36 47 -33 51 19 19 54 1
113 -59z m2196 13 c6 -4 19 -30 28 -56 10 -26 22 -56 28 -66 5 -11 18 -42 28
-70 9 -28 43 -111 74 -184 32 -74 56 -135 54 -137 -4 -4 -198 -78 -276 -105
-57 -21 -216 -103 -300 -157 -55 -35 -72 -35 -72 -2 0 11 -12 75 -26 142 -14
67 -30 140 -34 162 -8 38 -45 154 -89 277 -12 32 -21 61 -21 66 0 16 75 50
175 80 134 41 194 53 295 61 88 7 117 4 136 -11z m-4666 -43 c0 -5 -5 -3 -10
5 -5 8 -10 20 -10 25 0 6 5 3 10 -5 5 -8 10 -19 10 -25z m947 23 c-17 -48 -18
-58 -3 -52 21 8 53 -43 40 -64 -6 -9 -15 -17 -22 -20 -15 -5 -40 47 -37 78 1
14 3 35 4 48 0 12 6 22 12 22 6 0 9 -6 6 -12z m-122 -35 c3 -13 2 -23 -4 -23
-5 0 -13 9 -16 20 -3 11 -12 20 -18 20 -7 0 -6 4 3 10 17 11 25 4 35 -27z
m632 -21 l25 23 -18 -39 -19 -38 -42 48 c-23 27 -43 54 -43 59 0 6 17 -9 36
-33 l37 -43 24 23z m581 17 c2 -14 -4 -31 -12 -38 -22 -18 -56 -4 -56 23 0 49
62 64 68 15z m-2039 -294 c26 -94 26 -93 -5 -64 -60 56 -104 172 -104 274 0
33 7 51 27 76 l27 32 17 -122 c10 -67 27 -155 38 -196z m116 78 c27 -37 91
-111 143 -163 96 -96 86 -99 -22 -6 -76 66 -160 178 -219 293 -26 50 -47 95
-47 99 0 4 22 -29 49 -74 26 -44 70 -111 96 -149z m885 207 c0 -5 -7 -10 -15
-10 -8 0 -15 5 -15 10 0 6 7 10 15 10 8 0 15 -4 15 -10z m980 -82 c0 -7 -5
-20 -10 -28 -8 -12 -10 -9 -10 13 0 15 5 27 10 27 6 0 10 -6 10 -12z m-320
-56 c0 -29 49 -91 88 -112 l37 -20 -50 6 c-54 6 -134 40 -175 73 -25 20 -25
21 -3 21 13 0 37 13 55 29 34 31 48 31 48 3z m297 -8 c5 -14 -22 -25 -42 -18
-12 5 -13 9 -4 21 14 16 40 14 46 -3z m533 -178 c0 -2 -8 -10 -17 -17 -16 -13
-17 -12 -4 4 13 16 21 21 21 13z m-1765 -106 c-3 -5 -12 -10 -18 -10 -7 0 -6
4 3 10 19 12 23 12 15 0z m-2512 -167 c-23 -4 -30 -17 -15 -26 4 -2 1 -2 -6 0
-8 1 -27 3 -43 3 -16 0 -29 4 -29 9 0 9 44 17 95 18 16 0 15 -1 -2 -4z m-114
-27 c-2 -2 -26 -6 -54 -9 -32 -4 -43 -3 -30 3 19 8 93 14 84 6z m-166 -23 c-7
-2 -21 -2 -30 0 -10 3 -4 5 12 5 17 0 24 -2 18 -5z m392 -19 c24 -11 25 -13 5
-8 -14 4 -38 13 -55 20 -24 11 -25 13 -5 8 14 -4 39 -13 55 -20z m-472 9 c-7
-2 -19 -2 -25 0 -7 3 -2 5 12 5 14 0 19 -2 13 -5z m4266 -101 c19 -7 55 -12
80 -13 45 -1 45 -1 13 -9 -19 -4 -39 -13 -45 -19 -7 -7 -15 -7 -25 2 -13 10
-14 8 -10 -18 6 -29 5 -29 -38 19 -25 27 -50 58 -56 69 l-10 20 28 -20 c16
-11 44 -25 63 -31z m3071 -7 c0 -13 14 -40 30 -58 17 -19 30 -41 30 -49 0 -8
4 -18 9 -23 5 -6 6 -33 1 -65 -5 -30 -14 -131 -19 -225 -6 -93 -15 -213 -20
-265 -6 -52 -15 -182 -22 -289 -6 -107 -15 -207 -20 -223 -5 -17 -4 -26 2 -23
5 4 9 1 9 -4 0 -6 -4 -11 -10 -11 -5 0 -10 -8 -10 -18 0 -26 -33 -39 -157 -58
-113 -17 -534 -25 -658 -11 -33 4 -105 11 -161 16 -153 15 -172 28 -176 113
-4 80 19 146 35 104 6 -14 69 -32 152 -41 126 -13 494 -15 600 -3 l110 13 5
60 5 60 53 -2 c56 -3 57 -2 53 67 -1 14 3 68 9 120 14 137 48 491 55 585 7
103 23 184 41 212 18 29 18 37 -2 29 -8 -3 -12 -2 -9 4 3 6 19 10 36 10 24 0
29 -4 29 -25z m-6523 -1 c-3 -3 -12 -4 -19 -1 -8 3 -5 6 6 6 11 1 17 -2 13 -5z
m6364 -11 c-13 -25 -29 -166 -46 -403 -9 -113 -19 -225 -24 -250 -6 -25 -13
-87 -17 -137 l-7 -93 -31 0 c-63 0 -76 -9 -76 -51 0 -61 -15 -87 -52 -94 -18
-3 -103 -10 -188 -15 -218 -12 -534 19 -531 53 1 11 2 11 61 -8 43 -14 101
-19 270 -22 118 -2 258 0 310 4 l95 8 9 67 9 68 49 6 c27 4 50 9 52 13 2 3 9
56 15 116 6 61 18 142 26 180 8 39 17 150 20 249 4 156 21 286 41 317 10 17
25 9 15 -8z m-6264 -9 c-3 -3 -12 -4 -19 -1 -8 3 -5 6 6 6 11 1 17 -2 13 -5z
m106 -21 c-7 -2 -19 -2 -25 0 -7 3 -2 5 12 5 14 0 19 -2 13 -5z m90 -10 c-7
-2 -21 -2 -30 0 -10 3 -4 5 12 5 17 0 24 -2 18 -5z m1538 -10 c13 -16 12 -17
-3 -4 -17 13 -22 21 -14 21 2 0 10 -8 17 -17z m-1454 1 c-3 -3 -12 -4 -19 -1
-8 3 -5 6 6 6 11 1 17 -2 13 -5z m61 -1 c-10 -2 -26 -2 -35 0 -10 3 -2 5 17 5
19 0 27 -2 18 -5z m-1241 -279 c-3 -3 -12 -4 -19 -1 -8 3 -5 6 6 6 11 1 17 -2
13 -5z m2932 -17 c15 -13 231 -107 245 -107 3 0 48 -24 99 -53 213 -122 277
-133 397 -71 38 20 87 39 109 41 l40 5 -29 -55 c-18 -31 -38 -95 -50 -152 -11
-54 -22 -101 -25 -103 -2 -2 -57 6 -121 18 -134 25 -333 30 -427 11 l-57 -12
-68 52 c-129 101 -124 91 -127 258 -1 80 -5 154 -10 164 -9 20 2 22 24 4z
m-655 -422 c27 -8 99 -44 160 -79 213 -123 423 -215 776 -343 195 -70 329
-125 340 -139 17 -19 6 -18 -41 7 -23 11 -132 54 -242 95 -500 185 -592 225
-837 362 -74 42 -155 84 -180 93 -55 22 -42 24 24 4z m-39 -29 c56 -15 184
-77 230 -111 76 -57 428 -218 630 -288 55 -19 145 -55 200 -79 55 -25 118 -51
140 -58 77 -25 160 -68 173 -89 7 -11 8 -21 4 -21 -19 0 -453 151 -532 185
-46 20 -145 59 -220 87 -159 59 -371 161 -525 252 -96 56 -117 65 -165 67 -31
1 -65 5 -75 9 -19 7 -19 7 1 14 12 3 29 15 39 26 21 23 33 24 100 6z m1271
-41 c142 -15 239 -33 312 -56 24 -8 32 -16 32 -35 0 -29 3 -29 -79 -4 -142 42
-263 59 -432 61 -187 2 -242 16 -137 35 89 16 136 16 304 -1z m2494 -155 c69
-45 129 -86 133 -90 14 -12 -10 -47 -31 -45 -18 1 -91 59 -171 135 -20 19 -67
61 -104 94 -82 72 -88 92 -9 32 31 -23 113 -80 182 -126z m-5597 143 c-7 -2
-19 -2 -25 0 -7 3 -2 5 12 5 14 0 19 -2 13 -5z m114 -10 c-20 -2 -52 -2 -70 0
-17 2 0 4 38 4 39 0 53 -2 32 -4z m3705 -165 c-27 -40 -78 -102 -112 -138 -60
-63 -60 -63 -11 -6 62 70 134 170 152 210 7 15 15 23 17 18 2 -6 -19 -44 -46
-84z m73 -34 c-10 -8 -22 -14 -26 -14 -14 0 -14 35 0 64 l14 30 16 -33 c15
-31 14 -34 -4 -47z m-70 -31 c-9 -16 -35 -48 -57 -73 -39 -43 -33 -35 35 58
35 48 46 55 22 15z m-2558 -85 l22 -49 -32 -52 c-83 -134 -113 -176 -124 -177
-7 0 -19 13 -27 29 -14 26 -14 31 9 62 36 48 30 50 -14 3 -22 -23 -89 -72
-150 -110 -61 -38 -111 -73 -111 -77 0 -4 10 -3 23 4 16 8 13 4 -8 -14 -25
-21 -28 -27 -16 -40 12 -15 18 -14 64 9 82 41 41 11 -63 -47 -197 -108 -274
-149 -277 -146 -1 2 6 27 17 55 11 29 20 58 19 65 0 6 -5 -1 -11 -18 -6 -16
-17 -45 -24 -64 l-14 -34 -29 37 -29 36 17 43 c32 80 50 104 168 213 65 60
142 132 173 160 56 52 279 174 319 174 10 0 26 -12 36 -26 9 -14 19 -23 22
-21 2 3 -3 17 -12 31 -16 25 -16 25 7 14 13 -6 33 -33 45 -60z m2562 35 c-27
-37 -83 -93 -93 -93 -5 0 15 24 45 54 56 57 71 68 48 39z m-239 -146 c-31 -29
-90 -78 -133 -110 -42 -32 -77 -62 -77 -68 0 -20 -28 -7 -65 31 -21 22 -44 40
-50 40 -12 0 -64 39 -52 40 15 0 91 -53 119 -84 l29 -31 17 22 c9 12 44 42 77
67 33 24 87 69 120 99 33 30 62 53 65 50 3 -3 -20 -28 -50 -56z m-3 -59 c-25
-48 -206 -172 -224 -154 -3 3 5 10 18 15 25 9 174 126 198 155 19 23 24 14 8
-16z m-577 -53 c85 -29 203 -70 262 -91 l108 -38 52 25 c28 13 72 39 97 57 25
17 56 32 69 32 15 0 56 -30 117 -85 52 -47 108 -93 126 -104 29 -18 30 -19 10
-26 -54 -17 -311 -241 -311 -271 0 -27 -27 -18 -100 31 -233 159 -519 267
-745 281 -58 4 -105 10 -105 13 0 7 59 84 135 179 49 62 51 62 90 56 22 -3
110 -30 195 -59z m-362 34 c20 -6 41 -15 46 -20 14 -12 -13 -39 -38 -38 -20 1
-20 1 2 7 26 8 31 25 8 30 -8 2 -20 -5 -26 -15 -10 -16 -23 -18 -98 -14 -48 2
-132 -2 -187 -8 -55 -6 -128 -13 -163 -17 l-63 -6 6 -52 c3 -28 7 -80 10 -116
24 -349 40 -469 82 -605 15 -50 27 -110 26 -135 -1 -25 -2 -57 -2 -72 -1 -15
3 -37 8 -50 7 -17 8 -8 6 32 l-4 55 9 -45 c6 -25 9 -58 7 -75 -3 -27 -6 -23
-39 45 -55 114 -99 265 -115 390 -2 19 -13 109 -24 200 -11 91 -29 236 -40
322 -11 87 -18 162 -14 168 3 6 52 11 113 11 59 1 141 4 182 8 147 12 271 12
308 0z m1496 -36 c18 -109 46 -307 43 -310 -5 -4 -23 60 -32 109 -4 21 -11 36
-15 33 -17 -10 -42 36 -47 89 -3 31 -8 56 -11 56 -3 0 -32 -7 -63 -16 -56 -16
-58 -16 -88 6 -39 27 -39 38 2 45 17 3 55 9 82 14 28 5 66 9 86 10 34 1 37 -1
43 -36z m1828 4 c-12 -7 -20 -16 -17 -19 10 -9 -46 -40 -61 -34 -22 8 -7 25
40 46 47 21 72 25 38 7z m66 -12 c-3 -3 -9 2 -12 12 -6 14 -5 15 5 6 7 -7 10
-15 7 -18z m-4948 -5 c0 -5 -5 -10 -11 -10 -5 0 -7 5 -4 10 3 6 8 10 11 10 2
0 4 -4 4 -10z m2651 -16 c7 -9 22 -20 33 -24 17 -6 13 -8 -18 -14 -54 -10
-119 34 -68 47 32 8 39 7 53 -9z m-2696 -24 c-10 -11 -22 -17 -26 -14 -16 9
-10 -8 7 -20 13 -10 13 -12 -5 -12 -11 0 -18 2 -16 5 3 2 0 10 -5 16 -8 9 -2
18 22 33 38 24 49 21 23 -8z m4734 12 c48 -5 67 -12 77 -27 13 -20 11 -20
-259 -20 -248 -1 -291 -3 -487 -31 -199 -28 -300 -33 -300 -14 0 15 26 28 65
32 22 3 112 17 200 32 253 42 486 51 704 28z m-4672 -31 c16 13 17 12 5 -3 -7
-9 -41 -31 -75 -48 -34 -17 -54 -25 -45 -17 10 8 14 18 10 22 -4 5 -1 5 6 1 6
-4 12 -2 12 3 0 6 5 10 12 9 7 -2 13 7 14 20 3 36 3 36 24 17 17 -15 22 -16
37 -4z m2238 -19 c-6 -7 -45 19 -45 29 0 5 11 2 24 -8 13 -10 23 -19 21 -21z
m1279 22 c14 -5 13 -9 -7 -24 -17 -14 -51 -19 -160 -24 -138 -8 -139 -8 -127
13 9 18 21 21 78 22 58 1 194 13 199 17 1 1 8 -1 17 -4z m103 -20 c-3 -3 -12
-4 -19 -1 -8 3 -5 6 6 6 11 1 17 -2 13 -5z m-7956 -41 c-181 -236 -237 -358
-275 -598 -23 -145 -20 -224 15 -345 40 -139 87 -233 213 -425 91 -138 264
-375 296 -405 3 -3 23 -26 44 -53 30 -36 36 -50 27 -60 -13 -17 -104 -288
-125 -377 -9 -36 -20 -96 -25 -134 -6 -38 -16 -73 -23 -77 -7 -5 -34 -9 -59
-9 -132 0 -461 159 -567 275 -118 128 -245 358 -324 585 -28 80 -29 87 -17
150 35 191 134 493 238 728 84 191 259 458 387 589 128 132 253 232 195 156z
m5151 -148 c-6 -33 -7 -33 -120 -60 -118 -27 -212 -56 -212 -65 0 -4 -17 -19
-37 -33 -21 -14 -84 -70 -140 -125 -108 -104 -124 -114 -213 -132 -30 -6 -61
-14 -68 -19 -25 -15 11 -20 51 -6 20 7 37 12 37 10 0 -1 -46 -28 -102 -60 -86
-49 -110 -58 -148 -57 -32 1 -39 -1 -25 -7 11 -5 26 -6 33 -4 28 11 8 -7 -40
-37 -29 -18 -75 -51 -103 -75 -27 -23 -104 -77 -170 -121 -66 -43 -140 -93
-164 -111 -60 -46 -82 -58 -75 -39 8 20 -14 30 -32 15 -8 -6 -17 -10 -19 -7
-6 5 38 38 203 149 64 43 149 106 188 138 38 33 90 70 115 84 24 13 73 42 109
64 36 22 106 61 156 87 122 64 213 134 282 217 31 37 66 71 77 75 11 4 25 15
32 24 7 10 41 29 75 43 65 26 243 73 289 76 23 1 26 -2 21 -24z m-2835 -9 c2
-2 -35 -23 -83 -46 -153 -72 -335 -174 -484 -268 -247 -158 -461 -309 -540
-382 -107 -101 -160 -152 -244 -239 l-89 -92 -50 50 c-60 60 -107 87 -133 76
-17 -7 -16 -8 8 -15 42 -12 85 -47 117 -94 l30 -43 -35 -34 c-59 -57 -256
-287 -301 -350 -22 -33 -44 -56 -46 -52 -12 20 -55 213 -62 278 -16 148 -2
241 56 381 78 186 223 378 396 521 70 57 249 153 357 189 156 53 461 109 661
120 66 3 121 7 123 9 5 4 314 -4 319 -9z m3558 -20 c69 -6 226 -41 270 -61 17
-7 57 -21 90 -30 106 -30 248 -110 345 -196 49 -43 92 -79 95 -79 3 0 5 7 5
16 0 8 -4 13 -10 9 -7 -5 -50 62 -50 78 0 3 16 12 35 21 23 11 35 24 35 37 0
19 1 19 23 3 22 -17 22 -20 14 -137 -4 -66 -10 -123 -12 -126 -3 -2 -40 31
-83 75 -42 44 -97 96 -122 116 -51 41 -224 133 -267 141 -15 3 -98 24 -183 47
-217 58 -219 59 -277 61 -29 2 -53 6 -53 10 0 14 34 28 60 24 14 -2 52 -6 85
-9z m1375 -2 c0 -2 -29 -46 -64 -97 -71 -104 -104 -155 -92 -145 5 4 27 34 50
66 97 139 109 152 130 146 33 -10 204 -114 286 -175 102 -75 222 -215 274
-316 56 -113 72 -271 35 -352 -24 -55 -83 -128 -101 -128 -8 0 -42 -18 -76
-41 -76 -53 -77 -53 -289 -107 -214 -55 -275 -81 -376 -162 -43 -35 -81 -63
-85 -63 -4 0 -41 23 -82 51 -154 104 -265 146 -425 160 -139 12 -201 27 -318
82 -137 64 -276 160 -402 278 l-110 102 95 -97 c166 -170 309 -267 498 -336
77 -28 80 -33 26 -44 -48 -11 -243 71 -309 129 -28 24 -28 26 -7 22 19 -5 21
-3 11 9 -6 8 -20 14 -30 14 -40 0 -343 287 -333 315 3 8 -4 28 -17 46 l-22 31
24 -12 24 -13 -22 25 c-20 21 -23 35 -23 99 0 79 16 132 82 264 110 221 136
238 293 196 39 -11 130 -35 202 -55 171 -45 260 -83 370 -155 73 -49 243 -206
243 -226 0 -3 -12 3 -27 12 -16 10 -7 -2 20 -28 39 -38 47 -52 48 -85 1 -25 3
-31 6 -15 6 30 -3 66 -21 84 -11 10 -12 24 -5 58 4 24 8 79 9 121 0 42 5 89
10 103 l10 27 43 -38 c41 -37 82 -92 134 -181 14 -24 28 -43 32 -43 9 0 36 46
60 104 29 65 17 57 -19 -14 -17 -33 -35 -60 -40 -60 -5 0 -25 28 -46 63 -39
67 -96 143 -126 168 -17 13 -18 17 -5 27 12 10 21 5 51 -28 27 -30 43 -40 63
-39 27 2 27 2 3 6 -45 8 -46 23 -2 23 l42 0 0 -56 0 -57 -22 29 c-12 16 -26
34 -31 39 -16 16 5 -17 42 -68 l34 -47 13 26 c39 74 166 274 223 350 13 18 41
23 41 8z m284 -163 c-7 -7 -45 33 -76 79 -28 42 -27 42 25 -15 30 -33 53 -62
51 -64z m-8837 -43 c-3 -8 -6 -5 -6 6 -1 11 2 17 5 13 3 -3 4 -12 1 -19z m-16
-45 c-12 -20 -14 -14 -5 12 4 9 9 14 11 11 3 -2 0 -13 -6 -23z m366 -85 c-3
-8 -6 -5 -6 6 -1 11 2 17 5 13 3 -3 4 -12 1 -19z m-40 -70 c-2 -13 -4 -5 -4
17 -1 22 1 32 4 23 2 -10 2 -28 0 -40z m-380 -10 c-3 -8 -6 -5 -6 6 -1 11 2
17 5 13 3 -3 4 -12 1 -19z m410 -40 c-3 -7 -5 -2 -5 12 0 14 2 19 5 13 2 -7 2
-19 0 -25z m10826 -15 c-13 -2 -33 -2 -45 0 -13 2 -3 4 22 4 25 0 35 -2 23 -4z
m-10826 -40 c-3 -10 -5 -4 -5 12 0 17 2 24 5 18 2 -7 2 -21 0 -30z m4039 2
c103 -26 153 -49 239 -111 84 -59 97 -75 161 -189 16 -28 16 -29 1 -16 -10 7
-17 19 -17 27 0 7 -4 16 -10 19 -6 4 -7 -1 -3 -10 3 -9 -29 8 -72 39 -130 94
-237 123 -475 132 -185 7 -288 -12 -461 -86 -115 -48 -113 -46 -95 -125 7 -29
5 -32 -53 -65 -34 -18 -61 -40 -61 -48 0 -14 22 -96 116 -442 63 -230 93 -326
121 -389 13 -30 22 -56 20 -58 -5 -4 -78 92 -96 126 -7 12 -11 31 -8 40 3 12
-12 32 -48 61 -46 38 -55 52 -80 124 -16 45 -57 155 -93 246 -35 91 -71 188
-79 215 -8 28 -19 58 -24 68 -22 43 39 176 115 251 90 90 289 179 456 204 41
7 86 14 100 16 58 10 258 -7 346 -29z m6677 28 c-7 -2 -19 -2 -25 0 -7 3 -2 5
12 5 14 0 19 -2 13 -5z m-66 -9 c-3 -3 -12 -4 -19 -1 -8 3 -5 6 6 6 11 1 17
-2 13 -5z m-130 -20 c-3 -3 -12 -4 -19 -1 -8 3 -5 6 6 6 11 1 17 -2 13 -5z
m-10520 -56 c-3 -8 -6 -5 -6 6 -1 11 2 17 5 13 3 -3 4 -12 1 -19z m0 -50 c-3
-7 -5 -2 -5 12 0 14 2 19 5 13 2 -7 2 -19 0 -25z m3188 13 c6 -11 -33 -41 -54
-41 -10 0 -8 7 9 25 25 27 35 30 45 16z m-3218 -123 c-2 -18 -4 -6 -4 27 0 33
2 48 4 33 2 -15 2 -42 0 -60z m4123 22 c110 -31 178 -71 356 -207 19 -15 10
-12 -26 8 -30 17 -66 41 -80 54 -46 43 -143 95 -229 122 -79 25 -98 27 -241
26 -113 -1 -181 -7 -251 -21 -106 -23 -232 -69 -223 -83 3 -5 9 -33 14 -62 8
-54 0 -77 -27 -77 -7 0 -29 -6 -47 -14 l-34 -14 24 -97 c13 -53 43 -163 67
-243 25 -81 59 -202 77 -270 18 -67 43 -148 56 -180 26 -63 29 -82 13 -82 -16
0 -35 56 -90 258 -28 103 -61 221 -74 262 -13 41 -33 118 -45 170 -12 52 -28
116 -35 143 -13 47 -13 48 14 61 14 8 41 17 59 21 36 8 41 28 20 98 -10 35
-10 41 6 53 32 23 247 82 351 95 95 12 261 2 345 -21z m-4083 -72 c-3 -8 -6
-5 -6 6 -1 11 2 17 5 13 3 -3 4 -12 1 -19z m-500 -20 c-3 -8 -6 -5 -6 6 -1 11
2 17 5 13 3 -3 4 -12 1 -19z m470 -15 c-3 -10 -5 -4 -5 12 0 17 2 24 5 18 2
-7 2 -21 0 -30z m6563 -55 c0 -18 -23 -2 -32 22 -9 23 -8 23 12 5 11 -10 20
-22 20 -27z m-6523 -20 c-3 -7 -5 -2 -5 12 0 14 2 19 5 13 2 -7 2 -19 0 -25z
m-30 -35 c-3 -10 -5 -4 -5 12 0 17 2 24 5 18 2 -7 2 -21 0 -30z m6633 -29 c17
-20 29 -39 25 -42 -6 -6 -75 57 -75 70 0 17 19 6 50 -28z m-6593 4 c-3 -8 -6
-5 -6 6 -1 11 2 17 5 13 3 -3 4 -12 1 -19z m4503 8 c0 -3 -4 -8 -10 -11 -5 -3
-10 -1 -10 4 0 6 5 11 10 11 6 0 10 -2 10 -4z m-4533 -38 c-3 -7 -5 -2 -5 12
0 14 2 19 5 13 2 -7 2 -19 0 -25z m50 -90 c-3 -7 -5 -2 -5 12 0 14 2 19 5 13
2 -7 2 -19 0 -25z m6708 -19 c22 -23 33 -38 24 -33 -22 12 -79 61 -79 68 0 15
19 2 55 -35z m296 -83 c85 -39 215 -71 344 -86 50 -5 114 -19 143 -30 83 -32
231 -109 294 -152 l57 -40 -30 -38 c-44 -54 -48 -103 -15 -171 14 -30 33 -63
41 -73 14 -18 16 -18 33 -3 23 21 32 21 32 1 0 -9 9 -27 20 -41 25 -32 27 -99
3 -125 -18 -20 -58 -24 -69 -7 -3 6 -19 9 -34 5 -15 -3 -31 -2 -34 2 -4 3 -22
5 -41 3 -27 -2 -37 3 -50 23 -9 13 -15 37 -13 53 2 22 11 31 48 44 98 36 86
63 -117 265 -97 95 -174 163 -183 162 -35 -7 -46 -117 -18 -173 24 -47 81
-105 124 -125 30 -15 42 -25 33 -30 -7 -5 -38 6 -74 26 -67 37 -102 43 -111
19 -4 -8 -10 -15 -14 -15 -5 0 -39 28 -77 63 -94 86 -132 112 -144 98 -5 -6
-6 -9 -3 -6 9 6 47 -22 134 -100 41 -37 74 -72 72 -76 -1 -5 3 -8 10 -7 6 2
16 -15 21 -36 7 -26 27 -56 58 -88 51 -51 73 -59 83 -31 6 15 8 15 23 1 24
-25 6 -41 -39 -35 -44 6 -57 -8 -38 -42 6 -12 9 -21 6 -21 -10 0 -101 84 -99
91 3 10 -86 85 -96 82 -15 -4 -61 53 -96 118 -49 90 -44 49 6 -51 30 -59 44
-78 50 -69 6 9 9 1 10 -26 3 -110 35 -225 90 -322 16 -29 29 -62 29 -73 0 -25
20 -66 71 -142 20 -31 35 -59 31 -62 -9 -10 -50 -7 -57 4 -10 17 -35 -9 -35
-36 0 -13 15 -38 35 -58 33 -34 34 -36 15 -46 -36 -19 -19 -70 24 -70 12 0 36
9 54 20 17 11 32 15 32 9 0 -12 -77 -48 -105 -49 -29 0 -65 -28 -65 -49 0 -33
44 -62 96 -64 27 -1 61 1 75 5 26 8 26 6 43 -70 9 -42 17 -104 18 -136 3 -58
2 -60 -31 -83 -19 -13 -44 -23 -56 -23 -13 0 -28 -6 -34 -14 -9 -11 -6 -19 16
-36 l28 -23 -70 6 c-38 2 -79 8 -89 13 -13 5 -17 4 -13 -3 4 -6 29 -17 57 -24
27 -7 46 -17 43 -22 -4 -7 14 -8 49 -4 l56 7 -11 -25 c-7 -14 -18 -23 -25 -20
-8 3 -20 5 -28 5 -10 0 -12 5 -8 13 5 8 3 8 -9 -2 -9 -7 -15 -16 -13 -20 2 -3
-1 -14 -8 -23 -10 -14 -19 -15 -52 -8 -50 12 -56 12 -49 0 3 -6 -1 -7 -9 -4
-9 3 -16 11 -16 18 0 6 -13 18 -29 28 -34 19 -58 52 -71 97 -10 35 -5 37 39
15 18 -9 34 -14 37 -12 2 3 -19 15 -46 28 -28 13 -50 26 -50 29 0 3 7 51 15
106 8 55 17 179 21 275 5 146 3 205 -16 355 -12 99 -25 218 -31 265 -12 116
-42 280 -78 435 -63 268 -84 321 -162 408 -28 32 -46 57 -41 57 5 0 42 -15 83
-34z m-4401 -30 c0 -27 -6 -48 -15 -56 -13 -11 -15 -6 -15 33 0 25 3 52 6 61
11 28 24 6 24 -38z m5897 48 c-3 -3 -12 -4 -19 -1 -8 3 -5 6 6 6 11 1 17 -2
13 -5z m34 -51 c-34 -33 -42 -50 -63 -135 -13 -53 -21 -95 -17 -93 3 3 12 26
18 51 7 26 13 45 15 43 2 -2 -24 -119 -59 -259 -34 -140 -77 -338 -95 -440
-18 -102 -49 -250 -68 -330 -19 -80 -34 -155 -34 -167 0 -13 -4 -21 -8 -18
-10 6 -23 -62 -14 -77 4 -6 3 -8 -3 -5 -13 8 -38 -77 -28 -94 5 -7 4 -10 -2
-6 -6 4 -22 -41 -41 -111 -16 -64 -44 -156 -61 -203 -28 -75 -36 -88 -67 -102
-39 -19 -208 -24 -234 -7 -13 8 -12 10 4 10 32 0 57 29 45 51 -5 11 -18 19
-28 19 -10 0 -31 10 -46 22 -25 19 -27 26 -21 66 5 37 66 205 79 219 2 2 17
-3 33 -12 35 -18 64 -19 98 -4 50 23 41 44 -44 112 -22 18 -26 24 -11 17 36
-18 75 2 68 35 -2 16 0 25 8 25 21 0 47 38 48 71 2 29 -2 33 -33 41 -54 14
-56 24 -11 52 42 27 101 98 101 122 0 8 22 42 50 76 50 62 119 190 141 263 6
22 31 76 54 121 42 80 72 182 61 210 -10 25 -31 15 -91 -46 -52 -53 -60 -57
-71 -42 -11 16 -13 16 -31 -1 -11 -9 -23 -17 -27 -17 -5 0 14 20 42 45 52 47
77 94 92 177 10 51 0 98 -21 98 -7 0 -37 -28 -68 -61 -31 -34 -109 -102 -173
-151 -102 -77 -114 -84 -93 -52 42 63 29 158 -27 199 l-23 16 45 40 c52 46
155 116 218 148 54 27 147 56 261 81 48 11 99 24 112 29 52 21 59 12 20 -26z
m-1691 -15 l33 -43 -36 34 c-32 30 -46 51 -34 51 2 0 19 -19 37 -42z m1475 24
c-3 -3 -11 0 -18 7 -9 10 -8 11 6 5 10 -3 15 -9 12 -12z m-1148 2 c-3 -3 -12
-4 -19 -1 -8 3 -5 6 6 6 11 1 17 -2 13 -5z m236 -1 c-7 -2 -19 -2 -25 0 -7 3
-2 5 12 5 14 0 19 -2 13 -5z m-196 -9 c-3 -3 -12 -4 -19 -1 -8 3 -5 6 6 6 11
1 17 -2 13 -5z m3824 -139 c40 -66 88 -154 108 -195 36 -74 36 -76 35 -200 -1
-69 -7 -161 -13 -205 -36 -231 -196 -549 -371 -737 -64 -70 -78 -80 -138 -99
-82 -27 -223 -28 -310 -3 -103 30 -206 90 -291 170 -44 41 -82 83 -85 92 -4
10 16 60 47 117 49 94 55 101 109 130 104 55 123 67 193 120 127 95 292 269
388 407 89 129 198 379 223 514 9 46 13 42 105 -111z m-3778 128 c-7 -2 -19
-2 -25 0 -7 3 -2 5 12 5 14 0 19 -2 13 -5z m402 -65 c44 -22 97 -54 117 -70
20 -16 60 -37 89 -47 l52 -17 -28 -27 -29 -26 -34 26 c-19 14 -72 47 -118 72
-46 26 -82 50 -78 53 3 3 -1 5 -8 5 -17 -2 -198 66 -198 74 0 3 17 10 38 15
45 12 82 1 197 -58z m542 66 c-3 -3 -12 -4 -19 -1 -8 3 -5 6 6 6 11 1 17 -2
13 -5z m-864 -11 c-7 -2 -19 -2 -25 0 -7 3 -2 5 12 5 14 0 19 -2 13 -5z m74
-9 c-3 -3 -12 -4 -19 -1 -8 3 -5 6 6 6 11 1 17 -2 13 -5z m1114 -31 c-12 -20
-14 -14 -5 12 4 9 9 14 11 11 3 -2 0 -13 -6 -23z m-9062 -43 c1 -13 0 -13 -9
0 -5 8 -9 26 -9 40 l1 25 8 -25 c4 -14 8 -32 9 -40z m8571 36 c0 -2 -8 -10
-17 -17 -16 -13 -17 -12 -4 4 13 16 21 21 21 13z m-5425 -43 c3 -16 14 -56 25
-91 12 -34 18 -68 14 -75 -4 -7 -4 -9 1 -5 13 12 39 -32 27 -44 -23 -23 -48
22 -55 99 -1 11 -5 19 -8 17 -9 -5 -42 104 -34 116 11 18 25 11 30 -17z m5385
13 c0 -2 -8 -10 -17 -17 -16 -13 -17 -12 -4 4 13 16 21 21 21 13z m-1008 -81
c10 -18 10 -19 -6 -6 -10 8 -24 28 -32 45 l-15 31 21 -25 c11 -14 26 -34 32
-45z m968 52 c0 -2 -12 -14 -27 -28 l-28 -24 24 28 c23 25 31 32 31 24z m40
-11 c0 -2 -8 -10 -17 -17 -16 -13 -17 -12 -4 4 13 16 21 21 21 13z m-1170
-108 c0 -26 -2 -27 -20 -16 -11 7 -20 20 -20 29 0 9 -3 32 -6 50 l-6 34 26
-34 c14 -19 26 -48 26 -63z m-4336 25 c-54 -176 -71 -368 -53 -578 11 -117 38
-231 64 -272 9 -14 14 -28 10 -31 -4 -4 -100 -7 -213 -7 -201 0 -210 1 -292
28 -47 16 -94 37 -106 48 -11 10 -27 19 -35 19 -8 0 -29 15 -47 33 -30 31 -31
33 -18 72 7 22 33 83 58 135 41 84 71 174 85 250 2 14 6 35 9 47 7 35 79 83
172 115 105 35 248 104 317 151 28 19 53 35 57 36 3 1 0 -20 -8 -46z m5065
-77 c42 -43 75 -83 73 -88 -1 -5 2 -7 7 -4 12 8 118 -89 137 -126 18 -35 14
-44 -28 -52 -18 -3 -43 -16 -57 -29 -20 -18 -23 -19 -18 -4 4 11 3 16 -3 12
-6 -3 -8 -16 -6 -28 15 -73 15 -88 3 -81 -8 5 -7 2 2 -9 8 -10 16 -15 19 -13
2 3 17 -1 33 -10 17 -8 39 -12 54 -8 18 4 25 2 25 -8 0 -23 -41 -55 -87 -69
-36 -10 -50 -9 -98 5 -52 17 -80 34 -32 21 17 -5 19 -4 7 4 -8 6 -24 11 -34
11 -23 0 -66 37 -66 57 0 16 2 16 34 3 34 -13 60 12 51 49 -9 35 -11 36 -40
23 -17 -8 -25 -8 -25 -1 0 6 -4 7 -10 4 -12 -8 -88 73 -96 101 -3 12 -4 35 -2
50 5 46 40 36 144 -41 10 -7 20 -6 33 2 15 10 21 10 24 0 3 -7 3 2 2 18 -2 17
-4 33 -4 38 -1 4 -13 7 -27 7 -35 0 -97 52 -128 110 -28 51 -34 116 -15 151
13 25 10 27 128 -95z m-3717 39 c-2 -14 -8 -28 -13 -31 -10 -6 -11 2 -3 34 9
30 22 28 16 -3z m708 -74 c0 -50 -4 -65 -26 -91 -34 -39 -44 -31 -13 11 14 20
24 52 27 86 2 29 6 53 8 53 2 0 4 -27 4 -59z m2510 -18 c0 -23 -14 -31 -24
-15 -3 5 -8 29 -12 53 l-6 44 21 -30 c11 -16 21 -40 21 -52z m-253 45 c35 -25
47 -62 16 -52 -15 5 -15 4 -4 -4 12 -9 13 -15 3 -36 -14 -31 -28 -33 -42 -6
-8 16 -8 22 4 26 18 7 14 34 -7 46 -16 9 -24 48 -10 48 4 0 22 -10 40 -22z
m1097 0 c34 -30 47 -94 31 -142 -16 -47 -33 -66 -51 -59 -8 3 -14 0 -14 -7 0
-6 5 -8 10 -5 15 9 12 -11 -4 -24 -11 -9 -20 -2 -45 35 -44 67 -46 125 -5 187
28 43 43 46 78 15z m-5334 -28 c-16 -29 1 -123 42 -245 54 -158 72 -185 188
-278 46 -37 8 -20 -77 36 -52 33 -66 49 -87 97 -43 95 -96 284 -96 340 0 57
16 98 32 82 7 -7 6 -17 -2 -32z m3834 -12 c-3 -4 -11 -8 -17 -7 -9 0 -9 2 0 5
7 3 9 13 6 22 -4 14 -3 14 5 2 6 -8 8 -18 6 -22z m-241 -35 c3 -16 14 -62 25
-103 31 -119 35 -211 18 -340 -25 -178 -60 -276 -118 -330 -27 -25 -124 -28
-174 -4 -66 32 -134 120 -170 222 -20 59 -21 67 -7 88 8 13 31 34 52 46 51 31
134 111 201 194 57 70 150 220 150 242 0 24 18 11 23 -15z m-2373 -18 c-14
-37 -40 -85 -46 -85 -2 0 2 13 11 30 8 16 20 41 25 55 5 14 12 25 15 25 2 0 0
-11 -5 -25z m-2559 -22 c13 -16 12 -17 -3 -4 -10 7 -18 15 -18 17 0 8 8 3 21
-13z m5164 -13 c10 -11 16 -20 13 -20 -3 0 -13 9 -23 20 -10 11 -16 20 -13 20
3 0 13 -9 23 -20z m1636 -28 c-100 -83 -96 -78 -78 -85 9 -3 16 -2 14 3 -1 5
20 28 48 49 35 28 52 36 57 28 13 -20 9 -54 -7 -67 -10 -8 -13 -21 -9 -33 4
-13 2 -17 -5 -13 -13 9 -14 -13 -2 -33 10 -15 -3 -50 -21 -62 -10 -6 -16 -30
-17 -67 -1 -14 -5 -21 -12 -16 -8 4 -9 0 -4 -15 9 -28 -3 -61 -22 -61 -9 0
-13 -6 -9 -15 6 -18 -21 -20 -44 -4 -12 9 -11 10 5 5 18 -5 18 -5 3 6 -27 21
-82 52 -93 52 -5 1 -10 11 -10 24 0 12 5 22 10 22 6 0 10 -5 10 -11 0 -14 35
-39 54 -39 9 1 1 7 -18 16 -19 8 -31 17 -28 21 4 3 14 0 22 -7 13 -11 21 -11
43 0 15 8 31 14 35 14 14 2 27 31 21 50 -4 12 -2 16 6 11 8 -5 9 3 4 32 -8 43
-28 88 -45 99 -7 4 -6 -2 2 -17 11 -22 11 -23 -5 -10 -28 23 -15 46 59 105 78
62 105 76 36 18z m-4771 -7 c0 -5 -5 -3 -10 5 -5 8 -10 20 -10 25 0 6 5 3 10
-5 5 -8 10 -19 10 -25z m3201 -47 c-11 -11 -13 -10 -6 0 4 8 -1 23 -11 35 -18
22 -18 22 6 0 20 -19 22 -25 11 -35z m644 -4 c9 -31 14 -59 10 -62 -12 -12
-34 25 -40 71 -10 66 10 61 30 -9z m-3805 -39 c0 -5 -5 -3 -10 5 -5 8 -10 20
-10 25 0 6 5 3 10 -5 5 -8 10 -19 10 -25z m3519 -11 c27 -46 28 -68 2 -55 -21
12 -62 76 -54 85 14 14 32 4 52 -30z m1616 -60 c-3 -24 -10 -46 -16 -49 -12
-8 -11 13 3 77 13 60 23 39 13 -28z m-1055 -31 c0 -9 -37 18 -65 48 -29 31
-28 31 18 -5 26 -21 47 -40 47 -43z m-859 49 c-18 -2 -37 0 -42 5 -5 5 11 6
34 3 41 -4 41 -5 8 -8z m-6300 -9 c13 -16 12 -17 -3 -4 -10 7 -18 15 -18 17 0
8 8 3 21 -13z m6569 5 c0 -4 -9 -8 -21 -8 -11 0 -17 -5 -14 -10 4 -6 11 -7 17
-4 7 4 8 2 4 -4 -4 -7 -11 -12 -16 -12 -10 0 -22 29 -15 40 7 11 45 9 45 -2z
m614 -114 c4 -13 23 -43 44 -66 20 -23 31 -38 24 -34 -7 4 -24 5 -38 2 -20 -5
-24 -12 -24 -44 0 -43 29 -95 62 -113 13 -6 24 -13 26 -14 1 -1 -2 -14 -9 -27
-9 -21 -7 -32 10 -66 11 -22 25 -43 31 -47 5 -3 10 -18 10 -33 0 -15 5 -34 10
-42 9 -13 11 -13 20 0 12 19 12 32 0 65 -5 14 -14 23 -20 20 -14 -9 -51 56
-48 85 3 22 7 25 38 22 33 -3 70 -26 70 -44 0 -5 -10 -8 -22 -6 -15 2 -24 -3
-26 -15 -10 -48 69 -67 90 -22 10 21 8 30 -9 52 -25 34 -70 61 -103 62 -59 2
-124 67 -118 118 4 39 32 41 74 4 51 -45 94 -38 94 16 0 13 3 23 8 23 4 1 36
2 72 3 36 2 72 5 80 8 12 3 15 -8 15 -66 0 -38 -4 -79 -9 -90 -5 -11 -8 -26
-7 -32 1 -7 -3 -13 -9 -13 -5 0 -10 13 -10 29 0 36 -38 87 -53 72 -14 -14 -30
-14 -22 -1 3 6 2 10 -3 10 -6 0 -13 -7 -16 -16 -4 -10 -2 -13 6 -8 8 5 9 2 4
-12 -18 -43 -16 -53 15 -89 43 -48 45 -95 7 -145 -14 -19 -32 -54 -39 -78 -11
-39 -11 -48 6 -78 10 -19 22 -34 27 -34 18 0 6 -22 -27 -51 -19 -17 -35 -36
-35 -42 0 -6 15 2 33 19 l32 29 -27 -30 c-28 -31 -97 -77 -84 -56 12 19 -10
12 -29 -9 -22 -24 -43 -25 -91 -5 -28 11 -35 19 -32 37 2 18 11 24 43 29 38 6
92 23 125 39 21 10 24 54 6 70 -16 13 -22 2 -8 -16 4 -5 -1 -1 -11 10 -16 17
-19 17 -35 4 -9 -9 -32 -23 -49 -32 -29 -14 -33 -15 -33 -2 0 9 13 22 29 30
16 9 41 30 56 48 16 18 32 32 38 30 38 -11 62 33 32 58 -13 11 -15 9 -13 -11
2 -18 -1 -23 -15 -21 -11 2 -33 -13 -55 -38 l-37 -41 -32 31 c-20 19 -33 41
-33 56 0 24 14 32 25 14 3 -5 14 -10 24 -10 20 0 71 36 71 50 0 4 -17 20 -37
35 l-38 28 28 -29 c28 -31 33 -44 18 -44 -11 0 -41 46 -46 71 -2 10 -16 35
-31 54 -16 21 -24 41 -20 51 4 10 -8 43 -29 82 -46 82 -81 189 -90 271 l-6 63
59 -51 c33 -29 63 -63 66 -77z m-5980 90 c5 -14 4 -15 -9 -4 -17 14 -19 20 -6
20 5 0 12 -7 15 -16z m-1150 -10 c3 -8 2 -12 -4 -9 -6 3 -10 10 -10 16 0 14 7
11 14 -7z m4213 -66 c49 -45 170 -163 270 -262 l183 -180 -43 -16 c-123 -47
-249 -174 -324 -327 -20 -40 -40 -73 -43 -73 -8 0 -190 119 -190 124 0 2 16
30 35 62 33 55 41 74 30 74 -2 0 -20 -25 -40 -55 -38 -60 -57 -67 -96 -36 -13
10 -87 61 -165 113 -184 124 -274 196 -274 221 0 46 76 165 174 274 72 79 250
160 358 162 33 1 47 -8 125 -81z m2330 76 c-3 -3 -12 -4 -19 -1 -8 3 -5 6 6 6
11 1 17 -2 13 -5z m1444 -17 c-10 -9 -11 -8 -5 6 3 10 9 15 12 12 3 -3 0 -11
-7 -18z m-8000 -14 c13 -16 12 -17 -3 -4 -10 7 -18 15 -18 17 0 8 8 3 21 -13z
m4350 -123 c39 -40 67 -75 64 -79 -4 -3 -42 32 -85 79 -70 75 -77 86 -67 105
11 19 12 19 15 -6 2 -17 29 -54 73 -99z m2535 35 c5 -55 4 -68 -6 -58 -7 6
-14 42 -17 80 -7 92 14 73 23 -22z m-6816 22 c0 -6 -11 0 -25 13 -14 13 -25
28 -25 33 0 6 11 0 25 -13 14 -13 25 -28 25 -33z m7195 -67 c43 -27 46 -31 20
-25 -52 11 -77 29 -103 70 l-25 40 29 -26 c16 -15 52 -41 79 -59z m-738 18
c-3 -8 -6 -5 -6 6 -1 11 2 17 5 13 3 -3 4 -12 1 -19z m30 -10 c-3 -8 -6 -5 -6
6 -1 11 2 17 5 13 3 -3 4 -12 1 -19z m1572 -48 c-6 -36 -12 -67 -15 -70 -7 -6
7 121 13 133 11 19 12 -3 2 -63z m-582 13 l-11 -25 -8 22 c-5 14 -4 28 3 37
18 21 30 -4 16 -34z m927 41 c8 -3 13 -11 10 -18 -8 -20 71 -85 145 -120 66
-31 67 -31 221 -30 126 1 169 5 230 23 41 12 101 27 132 34 l57 13 11 -48 c17
-80 13 -169 -10 -216 -11 -22 -20 -45 -20 -50 0 -25 -94 -111 -152 -140 -77
-38 -127 -49 -196 -46 -114 5 -34 -30 88 -39 l45 -3 -56 -27 c-156 -76 -356
-34 -504 104 -110 103 -191 213 -224 304 -13 37 0 130 21 151 8 8 37 16 64 17
40 2 50 6 51 20 2 22 44 76 60 76 6 1 18 -2 27 -5z m456 0 c0 -10 -86 -42
-132 -49 -33 -5 -48 -4 -48 4 0 6 12 11 28 12 15 0 52 8 82 19 63 21 70 22 70
14z m-1290 -51 c0 -2 -13 3 -30 12 -16 9 -30 20 -30 26 0 5 14 0 30 -13 17
-12 30 -23 30 -25z m-1435 2 c19 -97 18 -122 -8 -178 -44 -96 -185 -227 -244
-227 -41 0 -71 -25 -84 -71 -7 -22 -20 -44 -28 -49 -9 -4 -63 -46 -119 -93
-78 -64 -111 -84 -134 -85 -50 -1 -83 -32 -84 -79 -1 -52 -21 -78 -66 -87 -30
-5 -42 -15 -68 -58 -30 -49 -33 -51 -46 -33 -8 10 -14 24 -14 31 0 7 -26 39
-58 71 -32 32 -78 83 -102 113 -25 30 -84 98 -132 152 -47 53 -103 122 -124
153 -20 31 -48 61 -61 66 -13 5 -42 23 -63 40 -22 18 -46 29 -54 26 -16 -6
-190 149 -181 162 2 5 31 11 64 14 33 4 75 13 93 20 24 10 48 11 91 4 36 -5
74 -5 96 0 50 13 59 8 85 -51 40 -90 151 -183 299 -251 111 -50 165 -60 323
-58 137 1 142 2 205 33 185 94 332 263 393 454 8 24 13 19 21 -19z m1417 -11
c23 -15 52 -27 65 -28 25 -1 25 3 -7 -95 -14 -44 -24 -56 -50 -67 -40 -17 -48
-18 -32 -2 15 15 15 51 0 66 -19 19 -45 14 -62 -10 -16 -22 -16 -22 -16 -2 0
15 10 25 33 32 29 10 29 11 5 8 -23 -3 -28 1 -28 18 0 23 35 106 45 106 3 0
24 -12 47 -26z m-320 2 c6 4 8 -2 6 -12 -5 -25 -35 -30 -59 -8 -28 25 -23 34
12 24 18 -5 36 -7 41 -4z m553 -41 c-10 -28 -14 -33 -15 -17 0 20 20 65 27 59
1 -2 -4 -21 -12 -42z m-55 15 c-8 -5 -22 -9 -30 -9 -10 0 -8 3 5 9 27 12 43
12 25 0z m71 -52 c-16 -44 -13 -58 5 -25 16 30 27 36 17 10 -6 -15 -55 -86
-100 -143 -17 -21 9 75 30 115 21 38 22 28 2 -18 -8 -20 -15 -41 -15 -47 0
-20 18 0 25 27 19 78 39 137 42 125 3 -7 0 -27 -6 -44z m-5214 6 c32 -20 70
-43 85 -52 34 -21 35 -28 4 -34 -17 -3 -34 4 -57 26 -19 17 -51 46 -72 64 -50
42 -32 41 40 -4z m2547 -23 c7 -47 74 -141 142 -199 52 -45 171 -112 198 -112
9 0 16 -4 16 -10 0 -13 3 -13 -76 11 -138 43 -279 127 -391 234 -34 33 -63 66
-63 73 0 7 16 12 43 13 23 0 58 6 77 13 19 8 38 14 41 15 4 0 9 -16 13 -38z
m1696 -26 c0 -24 -4 -47 -10 -50 -6 -4 -10 15 -10 50 0 35 4 54 10 50 6 -3 10
-26 10 -50z m-3725 -5 c-31 -32 -99 -77 -93 -61 5 14 111 101 117 96 2 -3 -8
-19 -24 -35z m4259 24 c11 -4 16 -19 16 -43 0 -20 5 -42 11 -48 6 -6 8 -21 4
-33 -7 -21 -8 -21 -25 8 -10 16 -23 33 -29 36 -17 11 -13 86 5 86 1 0 9 -3 18
-6z m142 -45 c4 -6 -7 -25 -25 -41 -35 -32 -44 -17 -15 27 18 27 29 31 40 14z
m526 -71 c-3 -16 -9 -28 -14 -28 -6 0 -7 7 -4 16 3 9 7 34 7 57 1 38 2 39 8
12 4 -16 5 -42 3 -57z m-6472 6 c0 -2 -9 0 -20 6 -11 6 -20 13 -20 16 0 2 9 0
20 -6 11 -6 20 -13 20 -16z m5890 -168 c16 -54 5 -123 -23 -137 -31 -17 -37
-28 -36 -74 0 -22 -6 -60 -15 -85 l-15 -45 0 63 c-1 39 5 75 15 93 18 35 10
50 -38 75 -34 18 -32 39 16 129 18 33 41 83 52 110 l19 50 7 -70 c3 -38 11
-88 18 -109z m36 133 c-10 -38 -9 -43 13 -60 17 -14 27 -16 36 -9 10 9 11 4 1
-24 -14 -40 -26 -56 -26 -35 0 8 -9 31 -20 52 -26 48 -22 113 6 117 1 0 -4
-18 -10 -41z m-189 -7 c-13 -13 -20 -13 -39 -3 l-23 12 23 -5 c15 -3 26 2 34
17 8 15 13 18 16 8 2 -7 -3 -20 -11 -29z m-5671 12 c18 -14 18 -14 -6 -3 -31
14 -36 19 -24 19 6 0 19 -7 30 -16z m5940 -11 c-3 -8 -6 -22 -7 -31 0 -12 -3
-10 -9 6 -5 12 -14 22 -19 22 -6 0 -8 6 -5 14 3 8 13 12 25 9 13 -4 18 -11 15
-20z m-4566 -44 c58 -23 130 -53 160 -67 59 -28 140 -33 180 -12 18 10 26 8
43 -7 82 -70 113 -76 218 -42 l66 22 104 -68 c162 -105 179 -117 179 -126 0
-24 -166 -113 -230 -124 -19 -3 -91 -8 -160 -11 l-125 -5 -47 44 c-68 66 -181
147 -273 196 -44 24 -133 79 -199 122 l-119 78 39 19 c22 11 43 20 49 21 5 1
57 -18 115 -40z m3827 -121 c-2 -18 -4 -6 -4 27 0 33 2 48 4 33 2 -15 2 -42 0
-60z m1168 15 c-9 -50 -17 -34 -9 18 4 24 9 38 12 31 2 -7 1 -29 -3 -49z
m-501 -3 c-6 -5 -24 21 -24 34 0 6 6 1 14 -10 8 -10 12 -21 10 -24z m-1254
-40 c-7 -14 -7 -20 0 -20 15 0 12 -28 -7 -61 -23 -39 -31 -37 -31 10 -1 25 7
49 19 65 24 31 34 34 19 6z m-50 -95 l0 -64 -33 -6 c-57 -11 -92 -3 -95 23 -3
20 1 22 37 22 40 0 41 1 41 35 0 31 18 54 43 55 4 0 7 -29 7 -65z m1776 -27
c-4 -29 -12 -59 -17 -67 -8 -13 -9 -12 -5 4 3 11 8 41 12 68 3 26 9 47 11 47
3 0 2 -23 -1 -52z m1474 47 c0 -3 -9 -23 -20 -45 -22 -44 -64 -79 -130 -108
-49 -21 -130 -37 -129 -25 0 5 32 24 72 43 78 38 187 114 187 130 0 5 5 10 10
10 6 0 10 -2 10 -5z m-1920 -46 c0 -5 -4 -9 -10 -9 -5 0 -10 7 -10 16 0 8 5
12 10 9 6 -3 10 -10 10 -16z m-76 -4 c-4 -8 -8 -15 -10 -15 -2 0 -4 7 -4 15 0
8 4 15 10 15 5 0 7 -7 4 -15z m-27 -27 c-3 -7 -5 -2 -5 12 0 14 2 19 5 13 2
-7 2 -19 0 -25z m-577 -27 c0 -34 -12 -81 -21 -81 -10 0 -12 44 -3 78 8 27 24
29 24 3z m471 -25 c-6 -7 -14 -31 -16 -52 -7 -47 -14 -56 -13 -15 1 17 -2 34
-6 38 -3 4 4 17 16 30 23 24 39 24 19 -1z m-1211 4 c12 -9 7 -18 -30 -51 -25
-22 -53 -45 -63 -50 -16 -9 -18 -6 -14 30 2 22 12 50 22 61 19 21 60 26 85 10z
m-120 -46 c0 -18 -43 -145 -51 -150 -5 -3 -16 10 -24 30 -8 19 -25 42 -37 50
-12 9 -19 19 -15 22 4 4 13 1 22 -6 18 -15 17 -15 39 28 12 23 23 32 41 32 14
0 25 -3 25 -6z m-118 -128 c31 -45 34 -55 21 -60 -9 -4 -18 -4 -21 -1 -3 3 1
5 8 5 11 0 11 4 -2 16 -15 15 -20 15 -64 0 -55 -19 -54 -18 -54 -8 0 4 14 13
32 20 l32 12 -22 23 c-17 18 -19 26 -10 35 23 23 44 12 80 -42z m2049 18 c-9
-28 -9 -29 -10 -3 -1 14 2 29 6 32 11 12 13 2 4 -29z m-2036 6 c10 -11 16 -20
13 -20 -3 0 -13 9 -23 20 -10 11 -16 20 -13 20 3 0 13 -9 23 -20z m1465 -57
c0 -7 -4 -13 -10 -13 -5 0 -11 -15 -11 -32 -1 -28 -3 -27 -9 12 -4 24 -5 53
-2 62 4 18 5 18 18 1 7 -10 14 -24 14 -30z m557 -15 c-3 -7 -5 -2 -5 12 0 14
2 19 5 13 2 -7 2 -19 0 -25z m-1077 -69 c0 -76 -12 -125 -28 -115 -5 3 -5 38
-1 78 4 40 8 83 8 96 1 12 6 22 11 22 6 0 10 -34 10 -81z m-995 41 c-41 -10
-75 -12 -75 -2 0 4 24 8 53 8 42 1 46 0 22 -6z m-131 -64 c-22 -24 -41 -40
-43 -34 -4 11 70 91 77 83 2 -2 -13 -24 -34 -49z m2155 -81 c-7 -31 -17 -59
-22 -62 -7 -4 -8 1 -3 13 4 10 12 40 18 66 6 27 13 46 16 44 2 -3 -2 -30 -9
-61z m-2231 21 c-9 -6 -18 -25 -21 -41 -3 -22 -4 -17 -6 17 -1 46 13 66 34 46
7 -6 4 -14 -7 -22z m1641 -27 c-18 -11 -59 -12 -59 0 0 12 64 29 69 18 2 -5
-3 -13 -10 -18z m-1344 1 c8 -26 3 -260 -6 -260 -3 0 -14 9 -24 20 -10 11 -22
20 -27 20 -17 0 -209 172 -205 183 3 7 11 10 18 8 8 -2 44 -9 81 -16 l67 -12
38 39 c43 44 49 46 58 18z m1275 10 c0 -5 -2 -10 -4 -10 -3 0 -8 5 -11 10 -3
6 -1 10 4 10 6 0 11 -4 11 -10z m-212 -153 c39 -40 91 -60 129 -51 13 4 23 4
23 2 0 -9 -114 -76 -181 -106 -76 -34 -93 -60 -62 -94 41 -46 131 -62 199 -33
37 15 38 9 4 -30 -10 -11 -30 -44 -45 -73 -36 -70 -25 -82 43 -48 49 25 72 33
60 20 -13 -12 67 -274 84 -274 3 0 15 15 27 33 11 17 31 48 44 67 13 19 32 56
43 82 14 36 22 44 31 36 14 -12 99 -22 113 -13 4 3 -7 41 -26 86 -19 44 -34
83 -34 85 0 2 11 -3 24 -11 13 -9 46 -18 74 -22 l50 -6 -15 -41 c-8 -22 -30
-96 -48 -164 -19 -68 -44 -140 -55 -160 -21 -37 -22 -38 -88 -40 -37 -1 -78
-3 -92 -4 -28 -2 -117 10 -140 19 -8 4 -18 7 -22 8 -5 2 -10 4 -13 5 -3 1 -8
3 -12 4 -5 1 -14 5 -21 10 -7 4 -20 5 -28 2 -10 -4 -12 -2 -8 6 5 7 0 9 -14 6
-14 -4 -20 -2 -15 5 4 6 -2 8 -15 5 -12 -4 -20 -3 -17 1 2 4 -36 27 -86 50
-50 23 -93 49 -96 57 -3 9 4 66 15 127 12 62 26 153 31 202 6 50 18 159 27
242 l18 153 28 -53 c16 -28 45 -69 66 -90z m-1383 83 c4 -6 11 -8 16 -5 5 4 9
-1 9 -9 0 -11 -12 -7 -47 16 -66 43 -76 54 -26 29 23 -11 45 -25 48 -31z m374
11 c18 -25 29 -29 91 -35 38 -4 72 -10 74 -14 2 -4 1 -36 -3 -72 l-8 -64 44
-47 c23 -25 43 -48 43 -51 0 -6 -90 13 -182 39 -32 9 -58 20 -58 26 0 5 -9 7
-20 4 -19 -5 -20 0 -20 119 0 70 4 124 9 124 5 0 19 -13 30 -29z m-91 -200
c17 -12 32 -28 32 -34 0 -7 -57 -57 -125 -111 -119 -95 -159 -137 -79 -82 28
19 42 23 55 16 28 -15 34 -13 77 30 22 23 43 36 46 31 9 -14 -15 -202 -29
-230 -12 -23 -12 -23 -51 27 -36 46 -43 51 -92 57 -28 3 -58 12 -65 19 -7 7
-18 11 -26 8 -11 -4 -12 3 -8 29 21 123 21 122 -51 182 -19 15 -27 27 -19 27
7 0 17 -3 21 -7 4 -4 36 -6 72 -5 48 3 64 0 64 -10 0 -8 3 -9 8 -3 9 12 54 16
46 4 -3 -5 -9 -7 -14 -4 -5 3 -11 1 -15 -5 -7 -11 0 -12 32 -4 13 4 20 11 17
16 -3 5 0 9 7 7 8 -1 25 0 39 2 14 2 -24 5 -85 8 -60 4 -116 2 -122 -3 -8 -5
-13 -4 -13 2 0 5 -13 12 -30 16 -16 3 -30 9 -30 13 0 5 21 21 46 37 42 26 66
61 63 90 -1 6 -1 24 0 39 1 27 4 26 99 -55 53 -46 112 -94 130 -107z m-300
151 c-10 -2 -18 -8 -18 -14 0 -30 -71 -51 -87 -25 -21 34 -6 54 47 59 39 4 89
-13 58 -20z m1212 -47 c0 -30 -10 -55 -21 -55 -10 0 -12 34 -3 67 8 28 24 20
24 -12z m-1370 -35 c-6 -11 -8 -25 -5 -30 3 -5 1 -11 -5 -15 -6 -4 -8 -11 -4
-16 4 -6 11 -6 19 1 9 8 15 8 20 0 3 -6 11 -7 17 -4 7 4 8 2 4 -4 -4 -7 -4
-12 1 -12 13 0 30 14 36 30 4 12 6 12 6 -2 1 -9 -4 -20 -9 -23 -8 -5 -7 -12 2
-22 11 -14 10 -15 -8 -9 -24 7 -42 -10 -73 -71 -12 -24 -25 -43 -29 -43 -17 1
-29 18 -42 62 l-13 48 43 65 c41 62 62 87 40 45z m93 0 c3 -11 2 -18 -1 -17
-4 2 -15 7 -25 10 -10 4 -15 11 -12 17 10 17 32 11 38 -10z m2138 -95 c-14
-47 -28 -85 -31 -84 -3 0 -39 32 -80 71 -41 39 -66 63 -54 54 40 -31 137 -15
173 28 8 9 15 16 16 16 1 0 -9 -38 -24 -85z m128 36 c-7 -23 -14 -39 -16 -37
-3 2 1 23 8 45 7 23 14 39 16 37 3 -2 -1 -23 -8 -45z m-3006 4 c9 -4 17 -13
17 -21 0 -8 -8 -14 -17 -15 -10 -1 -33 -2 -50 -4 -30 -2 -33 0 -33 25 0 14 3
29 6 32 5 6 39 -2 77 -17z m2252 -55 c-3 -5 -12 -10 -18 -10 -7 0 -6 4 3 10
19 12 23 12 15 0z m-3045 -15 c174 -6 211 -18 306 -97 75 -62 221 -202 197
-190 -32 17 -157 42 -166 33 -4 -4 25 -18 65 -31 40 -13 90 -32 111 -42 21
-10 42 -16 46 -13 5 3 23 -11 41 -31 23 -27 28 -39 19 -45 -21 -13 -280 -54
-399 -64 -41 -3 -103 -9 -138 -14 -83 -10 -156 0 -184 26 -13 11 -34 24 -47
28 -13 4 -42 23 -65 43 -22 20 -50 43 -61 52 -18 14 -19 14 -7 -1 6 -9 8 -19
4 -23 -4 -4 -2 -7 3 -5 14 3 45 -12 45 -22 0 -11 -23 -7 -32 6 -5 6 -8 6 -8
-1 0 -18 27 -37 35 -24 3 5 11 10 17 10 6 0 3 -10 -8 -22 -10 -12 -13 -18 -5
-13 11 6 13 4 8 -8 -4 -10 -2 -16 6 -14 7 1 11 -4 9 -11 -1 -8 2 -11 8 -7 5 3
13 -1 16 -10 6 -14 8 -14 20 2 13 17 13 16 10 -7 -1 -14 -6 -24 -10 -23 -20 4
-114 88 -109 96 3 6 2 7 -4 4 -5 -3 -39 21 -76 54 -52 47 -67 67 -67 89 0 29
15 40 53 40 25 0 46 -11 132 -64 l60 -38 -45 38 c-25 21 -76 71 -115 111 -85
89 -148 133 -192 133 -18 0 -33 2 -33 4 0 2 -3 11 -6 19 -4 11 8 16 48 22 59
8 312 22 343 18 11 -1 90 -5 175 -8z m-611 -46 c-21 -14 -53 -6 -57 13 -2 12
5 17 25 20 32 3 53 -19 32 -33z m3587 -14 c2 -28 -3 -30 -28 -11 -24 17 -23
24 5 29 12 2 22 5 22 6 0 0 1 -10 1 -24z m-2431 -5 c9 -15 -24 -70 -43 -70 -9
0 -28 9 -41 19 l-24 19 44 20 c52 24 56 25 64 12z m1080 -10 c3 -5 1 -10 -6
-10 -8 0 -8 -4 1 -15 10 -12 9 -15 -5 -15 -10 0 -47 -16 -82 -35 l-63 -36 0
29 c0 25 8 33 61 60 65 34 84 38 94 22z m471 -13 c44 -23 50 -35 44 -104 l-5
-63 -40 55 c-22 31 -51 73 -63 95 l-24 40 29 -4 c15 -1 42 -10 59 -19z m2487
-54 c-4 -11 -3 -14 5 -9 7 4 12 1 12 -8 0 -9 4 -16 10 -16 5 0 7 -7 4 -15 -7
-17 -44 -21 -44 -4 0 5 -4 7 -10 4 -13 -8 -13 6 0 39 5 14 14 26 19 26 6 0 7
-7 4 -17z m-3043 -78 c0 -20 -41 -36 -58 -23 -9 8 -9 14 -1 24 16 19 59 18 59
-1z m-149 -134 c-59 -56 -75 -80 -97 -137 -36 -96 -38 -97 -107 -91 -54 5 -61
3 -110 -31 -29 -19 -79 -54 -112 -76 -96 -64 -123 -89 -148 -136 -90 -170 -96
-175 -190 -156 -43 8 -52 6 -108 -24 -51 -27 -66 -31 -92 -24 l-30 9 39 20
c52 27 239 150 344 226 47 34 79 55 71 46 -16 -20 -12 -21 23 -7 29 11 37 36
9 26 -28 -9 42 47 167 136 63 45 140 103 170 129 30 26 93 81 140 121 47 40
87 77 90 83 3 5 6 -2 8 -17 3 -23 -9 -40 -67 -97z m-2075 41 c22 -15 66 -49
96 -76 53 -45 56 -51 51 -85 -6 -42 -32 -101 -43 -101 -5 0 -11 8 -14 18 -3 9
-33 45 -67 80 -33 34 -57 62 -53 62 4 0 27 -21 51 -47 23 -26 43 -42 43 -35 0
13 -17 32 -65 72 -17 14 -38 36 -48 50 -10 14 -20 24 -22 23 -17 -9 -25 0 -19
25 13 49 33 53 90 14z m2708 -24 l14 -32 -112 -74 c-116 -78 -223 -135 -237
-126 -12 7 -7 51 6 51 8 0 145 79 215 123 8 6 26 15 39 20 19 9 22 15 17 40
-5 27 -3 30 20 30 19 0 28 -8 38 -32z m-2202 -103 c8 9 73 -40 73 -55 1 -15
-23 -39 -38 -40 -4 0 -5 12 -3 26 3 14 2 32 -1 40 -5 12 -7 12 -17 -2 -11 -15
-15 -14 -34 11 -12 15 -19 32 -15 38 4 6 11 4 18 -6 7 -9 14 -14 17 -12z
m1858 -49 c0 -8 -14 -17 -30 -21 -40 -9 -100 -55 -236 -181 -105 -97 -236
-206 -332 -275 l-43 -31 7 29 c9 36 35 65 106 115 42 30 61 52 77 88 12 27 21
53 21 59 0 17 102 61 143 61 10 0 42 22 70 48 75 69 154 122 117 77 -7 -8 -9
-15 -4 -15 14 1 45 27 43 36 -3 20 2 24 31 24 19 0 30 -5 30 -14z m1741 -129
c-4 -4 -30 -4 -57 2 l-49 9 57 -1 c31 -1 53 -6 49 -10z m1566 -74 c-2 -16 -4
-5 -4 22 0 28 2 40 4 28 2 -13 2 -35 0 -50z m-3093 -76 c20 -71 29 -154 19
-160 -5 -4 -19 -4 -30 -1 -18 5 -22 16 -28 85 -6 66 -10 78 -21 68 -7 -6 -12
-14 -11 -17 1 -4 -2 -8 -6 -9 -17 -3 -66 -56 -60 -66 8 -13 -31 9 -45 26 -9
11 -6 19 16 39 40 38 134 98 144 92 4 -3 14 -28 22 -57z m-2528 -21 c31 -32
41 -50 37 -65 -6 -24 -5 -23 -27 -15 -9 3 -16 11 -16 17 0 6 -6 18 -14 26 -15
19 -38 81 -29 81 4 0 26 -20 49 -44z m2459 -138 c3 -29 9 -141 13 -248 l7
-195 95 -85 c99 -90 219 -237 216 -267 0 -10 6 -18 14 -18 20 0 80 -121 79
-159 -1 -31 -1 -30 -14 9 -16 51 -53 135 -59 135 -2 0 12 -45 31 -101 19 -55
32 -103 29 -106 -8 -8 -7 -12 -45 105 -19 56 -39 110 -46 119 -7 10 -41 21
-91 29 -43 7 -88 15 -99 19 -18 6 -19 6 -3 -7 9 -8 54 -23 98 -33 94 -22 92
-18 138 -167 22 -70 29 -109 26 -144 -8 -87 -75 -377 -116 -504 -75 -233 -189
-500 -213 -500 -3 0 2 15 10 33 13 27 14 29 1 12 -9 -11 -20 -26 -26 -32 -6
-7 -8 -13 -5 -13 3 0 -6 -11 -20 -25 -14 -14 -25 -33 -25 -41 0 -8 -4 -13 -9
-9 -5 3 -13 0 -17 -6 -5 -8 -3 -9 6 -4 9 5 11 4 6 -4 -6 -9 -11 -9 -22 0 -14
11 -15 10 -18 -13 0 -7 -10 -14 -21 -17 -16 -3 -17 -1 -7 11 10 13 8 15 -14
10 -19 -3 -22 -7 -12 -13 8 -5 -1 -7 -22 -4 -19 3 -93 12 -165 20 -195 23
-205 24 -265 39 -30 8 -74 17 -97 21 -23 3 -59 15 -79 26 -21 10 -54 22 -73
25 -41 7 -211 60 -256 79 -16 7 -73 28 -125 46 -52 17 -125 47 -162 65 -37 19
-72 34 -77 34 -31 0 -339 166 -354 191 -8 12 1 49 32 140 23 68 53 158 66 199
13 41 48 154 79 252 31 97 56 183 56 191 0 7 18 70 40 138 23 68 48 151 56
184 9 33 22 68 31 77 8 9 63 40 121 68 161 79 201 100 275 147 l68 43 121 3
121 2 49 -82 c27 -46 55 -83 63 -83 10 0 8 7 -8 24 -12 13 -40 60 -62 104 -22
44 -44 81 -48 81 -5 1 -6 -3 -2 -8 3 -6 -34 -11 -90 -13 -52 -2 -95 -1 -95 2
1 3 19 19 42 36 l41 32 71 -20 c39 -11 140 -42 223 -69 84 -27 160 -49 169
-49 9 0 50 34 90 75 63 64 75 72 83 57 6 -9 11 -12 11 -6 0 5 -6 16 -12 23
-11 10 5 30 79 102 51 49 96 89 102 89 5 0 12 -24 16 -52z m-836 -71 c-14 -13
-25 -31 -23 -40 1 -11 -25 -36 -79 -73 -85 -59 -204 -132 -247 -153 l-25 -12
25 20 c14 11 29 21 33 21 5 0 28 14 52 30 24 17 48 30 53 30 13 0 36 29 29 36
-3 4 -29 -10 -58 -30 -28 -21 -53 -35 -56 -32 -3 3 27 26 66 51 39 25 71 50
71 55 0 13 -17 13 -25 0 -3 -5 -19 -10 -34 -10 -20 0 -34 -8 -45 -25 -9 -14
-21 -23 -26 -20 -5 3 -12 0 -16 -6 -5 -8 -3 -9 6 -4 8 5 11 3 9 -4 -3 -7 -8
-12 -12 -11 -4 0 -22 -18 -40 -41 -24 -31 -53 -51 -114 -80 -46 -21 -83 -36
-83 -33 0 2 39 23 86 46 77 38 88 47 121 100 20 32 39 55 44 53 4 -3 11 0 15
6 4 8 3 9 -4 5 -22 -13 -12 13 10 28 14 10 44 16 83 16 57 0 65 3 129 50 72
52 99 66 55 27z m2820 -63 c-12 -27 -24 -44 -26 -37 -2 6 6 33 18 59 30 62 36
43 8 -22z m-3374 -64 c0 -18 -6 -26 -23 -28 -13 -2 -25 3 -28 12 -10 26 4 48
28 44 17 -2 23 -10 23 -28z m3335 -30 c-7 -17 -15 -28 -18 -26 -2 3 1 19 8 36
7 17 15 28 18 26 2 -3 -1 -19 -8 -36z m-3608 -137 c14 -16 29 -39 32 -53 l7
-25 -18 24 c-10 13 -30 36 -45 52 -14 16 -21 29 -14 29 7 0 24 -12 38 -27z
m4373 -103 c16 0 17 -2 5 -10 -27 -18 -69 -3 -55 20 5 8 10 9 18 1 6 -6 20
-11 32 -11z m31 -19 c-3 -5 1 -11 9 -15 8 -3 15 -10 15 -16 0 -6 -14 -4 -32 6
-30 16 -31 18 -13 25 27 10 27 10 21 0z m-4371 -21 c-3 -5 -12 -10 -18 -10 -7
0 -6 4 3 10 19 12 23 12 15 0z m4815 -66 c0 -6 -6 -17 -14 -23 -19 -16 -46 21
-46 62 l0 29 30 -29 c17 -15 30 -33 30 -39z m-5146 -7 c3 3 6 1 6 -5 0 -7 3
-11 8 -11 24 4 52 -2 47 -11 -3 -5 0 -7 9 -4 8 3 37 7 63 9 59 3 111 13 140
27 12 6 34 7 50 3 26 -7 21 -11 -72 -55 -55 -27 -117 -51 -138 -54 -62 -10
-134 33 -152 92 -6 21 -5 23 13 13 11 -6 22 -7 26 -4z m5359 -148 l52 -51 -60
47 c-33 26 -62 49 -64 51 -2 2 1 4 8 4 7 0 36 -23 64 -51z m-89 -31 c20 -40
50 -88 67 -105 45 -49 15 -40 -35 10 -39 39 -76 114 -76 154 0 24 8 13 44 -59z
m165 -293 c67 -163 101 -279 101 -349 0 -33 -9 -13 -29 66 -30 117 -90 244
-141 302 -39 43 -41 47 -13 28 17 -12 33 -22 36 -22 3 0 3 17 0 38 -8 53 7 32
46 -63z m-2499 55 c-33 -23 -50 -30 -50 -22 0 5 10 14 23 20 28 14 47 15 27 2z
m2604 -40 c5 -17 4 -20 -2 -10 -5 8 -13 26 -16 40 -5 17 -4 20 2 10 5 -8 13
-26 16 -40z m-2706 -17 c-26 -29 -108 -161 -108 -175 0 -4 -4 -8 -10 -8 -5 0
-10 24 -10 53 0 41 5 58 20 72 11 10 20 14 20 9 1 -5 8 0 18 11 21 25 74 64
86 65 6 0 -2 -12 -16 -27z m52 11 c0 -6 -111 -144 -116 -144 -12 0 96 149 109
150 4 0 7 -2 7 -6z m2749 -526 c38 -51 88 -111 111 -133 34 -32 39 -41 25 -43
-38 -8 -215 204 -215 258 0 20 11 9 79 -82z m-103 -40 c20 -40 30 -67 21 -60
-31 26 -82 132 -63 132 2 0 21 -33 42 -72z m-5283 -188 c25 -16 91 -52 148
-78 57 -26 115 -53 129 -60 22 -10 17 -11 -30 -6 -74 8 -152 30 -197 57 -21
12 -51 29 -68 37 -23 11 -31 23 -33 48 -2 17 -1 32 2 32 3 0 25 -13 49 -30z
m714 -279 c11 -6 11 -10 0 -24 -11 -17 -15 -17 -57 -2 -63 22 -110 45 -110 53
0 5 5 13 11 19 8 8 29 5 77 -14 37 -13 72 -28 79 -32z m-634 -88 c37 -29 67
-56 67 -58 0 -10 -101 41 -202 102 -54 32 -68 50 -51 66 10 10 109 -49 186
-110z m434 25 c-3 -7 -5 -2 -5 12 0 14 2 19 5 13 2 -7 2 -19 0 -25z m189 -5
c33 -14 35 -18 17 -21 -21 -3 -103 32 -103 44 0 8 38 -2 86 -23z m1043 -42
c-6 -17 -17 -35 -25 -42 -13 -10 -14 -8 -10 15 4 22 28 53 43 56 1 0 -3 -13
-8 -29z m-676 -24 c-5 -8 -8 -7 -11 2 -3 10 -6 10 -12 2 -4 -7 -14 -9 -26 -4
-17 6 -17 8 6 13 31 8 52 2 43 -13z"/>
<path d="M11567 11439 c7 -7 15 -10 18 -7 3 3 -2 9 -12 12 -14 6 -15 5 -6 -5z"/>
<path d="M11830 10205 c0 -24 120 -113 179 -133 19 -7 77 -11 130 -11 l96 2
-110 11 c-124 13 -185 38 -254 104 -23 22 -41 34 -41 27z"/>
<path d="M12010 10206 c0 -2 7 -7 16 -10 8 -3 12 -2 9 4 -6 10 -25 14 -25 6z"/>
<path d="M12054 10182 c4 -7 25 -15 47 -18 23 -4 43 -13 46 -20 5 -14 56 -34
82 -33 9 0 -3 8 -27 18 -24 9 -47 22 -50 28 -4 6 -20 12 -37 15 -16 3 -39 9
-49 13 -14 6 -17 5 -12 -3z"/>
<path d="M12185 10150 c25 -11 95 -13 95 -2 0 4 -26 8 -58 9 -39 1 -51 -1 -37
-7z"/>
<path d="M12045 10140 c3 -5 8 -10 11 -10 2 0 4 5 4 10 0 6 -5 10 -11 10 -5 0
-7 -4 -4 -10z"/>
<path d="M12604 10136 c-11 -8 -41 -23 -65 -32 -78 -30 -103 -64 -46 -64 41 0
109 31 142 65 39 38 14 62 -31 31z"/>
<path d="M12100 10116 c0 -2 7 -6 15 -10 8 -3 15 -1 15 4 0 6 -7 10 -15 10 -8
0 -15 -2 -15 -4z"/>
<path d="M12035 10100 c3 -5 8 -10 11 -10 2 0 4 5 4 10 0 6 -5 10 -11 10 -5 0
-7 -4 -4 -10z"/>
<path d="M12160 10090 c8 -5 24 -10 35 -10 17 0 17 2 5 10 -8 5 -24 10 -35 10
-17 0 -17 -2 -5 -10z"/>
<path d="M12295 10036 c-66 -17 -80 -25 -80 -41 0 -18 6 -20 61 -18 59 1 115
20 129 43 7 11 -12 41 -24 39 -3 -1 -42 -11 -86 -23z"/>
<path d="M11950 10035 c-18 -22 2 -42 57 -58 62 -18 128 -9 128 18 0 17 -9 21
-69 27 -38 4 -73 11 -79 17 -15 15 -22 14 -37 -4z"/>
<path d="M13508 10247 c8 -9 11 -21 8 -26 -4 -6 2 -8 15 -6 15 3 19 0 15 -10
-3 -9 1 -12 15 -10 16 3 19 0 14 -13 -5 -14 -4 -15 7 -4 11 11 8 18 -17 38
-16 14 -39 30 -50 36 -18 10 -19 9 -7 -5z"/>
<path d="M13334 10135 c-8 -20 11 -42 64 -76 44 -28 72 -29 72 -3 0 15 -100
94 -119 94 -6 0 -14 -7 -17 -15z"/>
<path d="M13043 9303 c9 -2 23 -2 30 0 6 3 -1 5 -18 5 -16 0 -22 -2 -12 -5z"/>
<path d="M11988 8973 c7 -3 16 -2 19 1 4 3 -2 6 -13 5 -11 0 -14 -3 -6 -6z"/>
<path d="M11657 8953 c-10 -9 -9 -23 2 -23 5 0 11 7 15 15 5 15 -5 20 -17 8z"/>
<path d="M12955 8860 c3 -5 18 -10 33 -9 24 0 25 1 7 9 -28 12 -47 12 -40 0z"/>
<path d="M13061 8836 c2 -2 21 -6 42 -10 27 -5 37 -4 32 3 -3 6 -22 11 -42 11
-20 0 -34 -2 -32 -4z"/>
<path d="M12569 8778 c14 -16 21 -33 17 -43 -3 -9 -2 -13 4 -10 17 11 11 31
-17 56 l-28 24 24 -27z"/>
<path d="M12168 8450 c-137 -16 -217 -61 -204 -113 8 -32 76 -119 113 -144 31
-22 113 -56 120 -50 2 2 -19 14 -46 25 -48 21 -121 82 -121 102 0 22 62 42
110 36 39 -5 52 -3 71 14 l24 21 -33 -16 c-24 -12 -41 -13 -65 -7 -19 5 -42 5
-56 0 -17 -6 -27 -5 -33 4 -5 9 -8 6 -8 -9 0 -28 -8 -29 -26 -5 -20 25 -18 79
4 90 25 14 156 42 191 42 17 0 31 5 31 10 0 6 -1 9 -2 9 -2 -1 -33 -5 -70 -9z"/>
<path d="M12273 8453 c9 -2 23 -2 30 0 6 3 -1 5 -18 5 -16 0 -22 -2 -12 -5z"/>
<path d="M12598 8418 c6 -6 18 -8 28 -6 14 3 12 5 -9 10 -19 3 -25 2 -19 -4z"/>
<path d="M12675 8400 c3 -5 11 -10 16 -10 6 0 7 5 4 10 -3 6 -11 10 -16 10 -6
0 -7 -4 -4 -10z"/>
<path d="M12730 8323 c0 -17 -3 -38 -6 -47 -8 -21 -48 -20 -81 2 -15 9 -24 11
-19 4 4 -6 20 -19 37 -27 36 -19 37 -39 2 -72 -22 -20 -23 -23 -7 -15 56 30
108 130 86 168 -10 17 -11 15 -12 -13z"/>
<path d="M10330 7174 l-25 -15 25 7 c14 3 32 10 40 15 13 7 13 8 0 8 -8 0 -26
-6 -40 -15z"/>
<path d="M10329 7114 c-35 -31 -63 -60 -62 -65 4 -12 -35 -31 -41 -20 -3 5 18
31 46 57 29 26 45 45 35 41 -11 -4 -20 -1 -23 8 -5 11 -19 8 -72 -20 -85 -44
-135 -89 -127 -114 8 -28 36 -35 42 -12 4 14 13 19 36 18 27 -2 33 -6 35 -29
3 -23 -1 -28 -17 -28 -29 0 -27 -28 3 -41 20 -10 28 -8 47 10 13 11 28 21 34
21 20 0 90 99 90 128 l0 28 -34 -23 c-30 -21 -51 -29 -51 -20 0 2 24 20 54 41
57 39 95 76 79 76 -5 0 -38 -25 -74 -56z"/>
<path d="M10410 7129 c0 -5 5 -7 10 -4 6 3 10 8 10 11 0 2 -4 4 -10 4 -5 0
-10 -5 -10 -11z"/>
<path d="M10144 6972 c-57 -42 -78 -72 -23 -35 41 29 78 63 67 63 -3 0 -23
-13 -44 -28z"/>
<path d="M9980 6935 c-19 -19 -32 -35 -29 -35 39 4 114 30 117 41 5 12 3 12
-11 1 -19 -16 -41 -6 -33 14 9 24 -9 15 -44 -21z"/>
<path d="M10103 6898 c-13 -18 -37 -78 -32 -82 2 -2 20 7 39 20 22 15 28 24
18 24 -23 0 -34 20 -17 31 7 4 11 11 8 14 -4 3 -11 0 -16 -7z"/>
<path d="M10020 6869 l-35 -30 38 26 c33 24 43 35 34 35 -1 0 -18 -14 -37 -31z"/>
<path d="M9970 6870 c-8 -5 -12 -11 -9 -14 3 -3 14 1 25 9 21 16 8 20 -16 5z"/>
<path d="M9850 6820 c-37 -34 -50 -54 -50 -74 0 -32 6 -29 71 28 33 29 39 37
22 33 -13 -3 -23 -2 -23 3 0 4 10 10 23 13 12 4 31 12 41 20 18 13 18 14 -7
19 -21 4 -36 -4 -77 -42z"/>
<path d="M9981 6795 c-41 -54 -65 -69 -42 -27 8 16 -1 13 -55 -15 -35 -19 -62
-39 -59 -44 12 -18 54 -9 121 26 51 27 70 32 76 23 4 -7 8 -10 8 -5 0 4 -6 16
-12 27 -10 16 -10 24 0 41 28 45 3 27 -37 -26z"/>
<path d="M9917 6704 c-27 -14 -47 -27 -44 -30 4 -5 97 45 97 52 0 6 0 6 -53
-22z"/>
<path d="M10744 6519 c-3 -6 -2 -15 2 -19 12 -12 38 5 30 19 -9 14 -23 14 -32
0z"/>
<path d="M10290 6185 l-25 -14 35 0 c43 -1 70 13 45 23 -22 8 -26 8 -55 -9z"/>
<path d="M9731 5801 c-19 -15 -21 -19 -8 -24 8 -3 23 1 34 9 10 9 12 12 4 8
-9 -5 -12 -3 -7 5 4 6 12 9 17 6 5 -4 17 -1 26 4 15 9 13 10 -12 10 -16 1 -41
-8 -54 -18z"/>
<path d="M12640 6334 c0 -5 7 -18 15 -28 12 -16 15 -17 15 -4 0 8 -7 21 -15
28 -8 7 -15 9 -15 4z"/>
<path d="M13055 6330 c-9 -16 -13 -30 -11 -30 3 0 12 14 21 30 9 17 13 30 11
30 -3 0 -12 -13 -21 -30z"/>
<path d="M12802 6055 c-18 -36 -32 -69 -32 -74 0 -11 80 -111 89 -111 9 0 61
106 61 123 -1 6 -15 -14 -31 -47 l-31 -59 -31 38 c-48 57 -48 64 -11 133 18
34 30 62 26 62 -4 0 -22 -29 -40 -65z"/>
<path d="M12860 6082 c0 -5 10 -17 22 -28 l21 -19 -18 28 c-18 28 -25 33 -25
19z"/>
<path d="M11560 5956 c0 -2 8 -10 18 -17 15 -13 16 -12 3 4 -13 16 -21 21 -21
13z"/>
<path d="M12817 5677 l-46 -72 20 -35 c11 -19 29 -46 40 -59 19 -23 20 -23 39
-6 11 10 31 38 45 62 l24 45 -28 62 c-16 35 -33 66 -39 70 -5 3 -30 -27 -55
-67z m81 0 c29 -67 28 -73 -9 -132 l-31 -49 -19 25 c-11 13 -26 37 -34 53 -14
28 -13 32 22 93 20 34 40 63 43 63 3 0 15 -24 28 -53z"/>
<path d="M12592 3441 c-11 -7 -10 -9 3 -14 9 -4 14 -3 10 2 -3 5 1 12 7 14 7
3 9 6 3 6 -5 0 -16 -3 -23 -8z"/>
<path d="M12761 5275 c31 -17 111 -36 104 -25 -5 9 -98 40 -117 40 -7 -1 -1
-7 13 -15z"/>
<path d="M11868 5201 c2 -17 8 -34 13 -37 14 -8 10 30 -4 51 -13 16 -14 15 -9
-14z"/>
<path d="M12971 4937 c-13 -21 -12 -21 5 -5 10 10 16 20 13 22 -3 3 -11 -5
-18 -17z"/>
<path d="M13007 4653 c-4 -3 -7 -11 -7 -17 0 -6 5 -5 12 2 6 6 9 14 7 17 -3 3
-9 2 -12 -2z"/>
<path d="M12687 4189 c4 -13 8 -18 11 -10 2 7 -1 18 -6 23 -8 8 -9 4 -5 -13z"/>
<path d="M12897 4553 c-4 -3 -7 -11 -7 -17 0 -6 5 -5 12 2 6 6 9 14 7 17 -3 3
-9 2 -12 -2z"/>
<path d="M11080 3391 c0 -6 4 -13 10 -16 6 -3 7 1 4 9 -7 18 -14 21 -14 7z"/>
<path d="M11157 3323 c-9 -8 12 -33 27 -33 6 0 3 5 -7 11 -9 6 -15 14 -12 20
7 10 2 12 -8 2z"/>
<path d="M11268 3243 c7 -3 16 -2 19 1 4 3 -2 6 -13 5 -11 0 -14 -3 -6 -6z"/>
<path d="M11066 3191 c-3 -4 6 -6 19 -3 14 2 25 6 25 8 0 8 -39 4 -44 -5z"/>
<path d="M11026 3178 c3 -4 9 -8 15 -8 5 0 9 4 9 8 0 5 -7 9 -15 9 -8 0 -12
-4 -9 -9z"/>
<path d="M10833 3265 c0 -8 4 -12 9 -9 5 3 6 10 3 15 -9 13 -12 11 -12 -6z"/>
<path d="M8924 3203 c4 -4 16 -8 28 -10 28 -4 18 6 -12 12 -12 2 -20 1 -16 -2z"/>
<path d="M8997 2888 c15 -17 17 -17 35 -2 22 20 22 21 4 21 -8 0 -14 -3 -13
-6 1 -3 -2 -7 -8 -7 -5 -1 -9 1 -8 5 1 4 -5 8 -13 8 -11 0 -11 -4 3 -19z"/>
<path d="M9041 2876 c-9 -10 -7 -17 6 -27 16 -12 17 -12 6 2 -10 12 -10 18 -1
27 7 7 9 12 6 12 -3 0 -11 -6 -17 -14z"/>
<path d="M9066 2873 c-6 -14 -5 -15 5 -6 7 7 10 15 7 18 -3 3 -9 -2 -12 -12z"/>
<path d="M9079 2858 c-6 -21 -5 -37 2 -32 5 3 9 0 9 -7 0 -7 3 -9 6 -6 4 4 2
13 -4 20 -7 8 -9 17 -5 20 3 4 3 7 0 7 -4 0 -7 -1 -8 -2z"/>
<path d="M10805 2929 c-4 -6 -5 -12 -2 -15 2 -3 7 2 10 11 7 17 1 20 -8 4z"/>
<path d="M10607 2713 c-43 -33 -46 -45 -11 -41 18 2 30 13 39 36 8 17 13 32
11 32 -1 0 -19 -12 -39 -27z"/>
<path d="M10155 2390 c-4 -6 -14 -9 -22 -6 -8 3 -11 2 -8 -3 3 -5 -13 -25 -36
-43 -90 -72 -102 -85 -86 -85 9 0 14 3 12 7 -2 3 19 5 46 4 27 -1 52 3 56 9 3
6 1 7 -5 3 -7 -4 -12 -4 -12 -1 0 13 33 71 53 92 11 13 18 25 15 29 -3 3 -9 0
-13 -6z"/>
<path d="M10074 2348 l-19 -23 23 19 c21 18 27 26 19 26 -2 0 -12 -10 -23 -22z"/>
<path d="M10026 2318 c3 -5 10 -6 15 -3 13 9 11 12 -6 12 -8 0 -12 -4 -9 -9z"/>
<path d="M9990 2291 c0 -7 -4 -10 -8 -7 -4 2 -9 -5 -9 -16 -2 -21 -2 -21 14 1
8 12 12 25 9 28 -3 4 -6 1 -6 -6z"/>
<path d="M9951 2264 c0 -11 3 -14 6 -6 3 7 2 16 -1 19 -3 4 -6 -2 -5 -13z"/>
<path d="M9924 2255 c-4 -8 -11 -12 -17 -8 -6 3 -7 1 -3 -5 10 -16 14 -15 26
8 6 11 8 20 5 20 -3 0 -8 -7 -11 -15z"/>
<path d="M9870 2225 c-7 -8 -16 -13 -20 -10 -4 3 -13 -2 -20 -10 -9 -10 -9
-15 -1 -15 6 0 11 5 11 11 0 5 4 8 9 4 5 -3 16 1 24 9 8 8 18 12 22 8 5 -4 5
-1 1 6 -9 15 -11 15 -26 -3z"/>
<path d="M8680 2836 c0 -2 7 -7 16 -10 8 -3 12 -2 9 4 -6 10 -25 14 -25 6z"/>
<path d="M9201 2754 c0 -11 3 -14 6 -6 3 7 2 16 -1 19 -3 4 -6 -2 -5 -13z"/>
<path d="M9245 2720 c0 -15 3 -26 8 -23 4 2 7 13 7 23 0 10 -3 21 -7 23 -5 3
-8 -8 -8 -23z"/>
<path d="M10920 2670 c-8 -5 -12 -11 -10 -14 3 -2 14 2 24 10 22 15 10 19 -14
4z"/>
<path d="M10694 2516 c-17 -8 -34 -24 -37 -37 -3 -13 -5 -24 -4 -25 1 -1 22
15 47 37 47 40 46 47 -6 25z"/>
<path d="M10428 2093 c6 -2 18 -2 25 0 6 3 1 5 -13 5 -14 0 -19 -2 -12 -5z"/>
<path d="M11189 2043 c-13 -16 -12 -17 4 -4 16 13 21 21 13 21 -2 0 -10 -8
-17 -17z"/>
<path d="M10765 1915 l-40 -14 40 7 c84 13 84 13 137 -73 82 -132 96 -140 183
-109 22 7 29 11 15 9 -100 -19 -93 -21 -136 37 -22 29 -55 77 -73 106 -37 58
-52 62 -126 37z"/>
<path d="M11164 1764 c-44 -26 -39 -32 7 -9 16 9 33 14 38 11 4 -3 23 -44 40
-91 18 -46 36 -87 41 -90 7 -5 -30 117 -55 177 -11 27 -30 28 -71 2z"/>
<path d="M11425 1561 c3 -6 12 -11 19 -11 7 0 31 -12 52 -26 29 -19 34 -21 19
-5 -22 22 -101 59 -90 42z"/>
<path d="M10324 2175 c-4 -8 -10 -12 -15 -9 -5 3 -12 -2 -15 -10 -3 -9 -10
-13 -15 -10 -5 3 -9 0 -9 -5 0 -16 20 -13 26 4 4 8 10 13 15 10 4 -3 13 4 19
15 6 11 8 20 5 20 -3 0 -8 -7 -11 -15z"/>
<path d="M10250 2129 c0 -5 -4 -8 -9 -5 -4 3 -19 -6 -31 -19 -27 -29 -21 -31
20 -10 17 9 30 22 30 30 0 8 -2 15 -5 15 -3 0 -5 -5 -5 -11z"/>
<path d="M10110 2120 c-8 -5 -12 -12 -9 -15 4 -3 12 1 19 10 14 17 11 19 -10
5z"/>
<path d="M13150 13170 c11 -16 26 -33 32 -36 7 -4 -1 9 -16 29 -34 44 -46 50
-16 7z"/>
<path d="M13110 13176 c0 -2 8 -10 18 -17 15 -13 16 -12 3 4 -13 16 -21 21
-21 13z"/>
<path d="M13592 11065 c11 -12 161 -76 165 -71 4 4 -112 60 -149 71 -12 4 -20
4 -16 0z"/>
<path d="M13895 11050 c-3 -5 1 -10 10 -10 9 0 13 5 10 10 -3 6 -8 10 -10 10
-2 0 -7 -4 -10 -10z"/>
<path d="M13775 11040 c-25 -11 1 -11 35 0 20 6 21 8 5 8 -11 0 -29 -3 -40 -8z"/>
<path d="M13950 11033 c15 -6 131 -83 232 -154 32 -22 66 -39 75 -36 16 3 16
5 -2 11 -43 16 -67 31 -96 58 -16 16 -29 25 -29 21 0 -3 -10 3 -22 14 -30 27
-146 93 -161 92 -7 0 -5 -3 3 -6z"/>
<path d="M13897 10933 c-2 -4 -12 -52 -22 -106 -15 -83 -21 -101 -42 -114
l-25 -17 23 -16 c16 -13 20 -24 16 -40 -4 -17 2 -34 22 -59 43 -56 68 -102 82
-151 l13 -45 4 33 c2 18 -4 57 -12 86 -15 51 -15 57 4 100 14 34 31 53 62 72
24 14 72 42 108 63 35 21 65 42 67 47 5 15 -59 53 -128 75 -35 12 -73 30 -85
40 -11 11 -29 19 -40 19 -11 0 -25 5 -31 11 -6 6 -13 7 -16 2z"/>
<path d="M14079 10203 c-13 -16 -12 -17 4 -4 9 7 17 15 17 17 0 8 -8 3 -21
-13z"/>
<path d="M7509 10165 c-3 -2 -36 -11 -75 -20 -164 -36 -271 -76 -389 -144 -72
-41 -215 -182 -273 -267 -41 -61 -122 -222 -122 -243 0 -6 -4 -11 -9 -11 -24
0 -49 195 -32 257 18 67 106 113 160 84 11 -7 21 -8 21 -2 0 24 -80 28 -131 7
-78 -32 -115 -83 -144 -193 -24 -92 -28 -176 -15 -281 21 -159 96 -337 185
-439 25 -28 45 -54 45 -57 0 -8 -135 52 -220 97 -129 70 -231 137 -358 236
-109 85 -126 103 -153 157 -17 33 -34 83 -39 110 l-9 49 3 -56 c3 -64 49 -172
96 -226 17 -18 30 -37 30 -42 0 -27 183 -184 280 -240 154 -90 302 -160 436
-207 34 -12 58 -28 72 -48 12 -17 43 -53 70 -79 l49 -48 64 35 c54 29 107 52
219 92 11 4 8 9 -13 20 -106 57 -236 173 -275 248 -102 196 -131 360 -86 491
74 219 292 486 495 606 132 77 187 99 254 99 60 0 105 -18 128 -51 8 -11 18
-16 21 -11 13 21 -34 60 -85 71 -50 11 -191 15 -200 6z m-1430 -931 c12 -15
21 -31 21 -35 0 -19 -16 -7 -38 26 -26 41 -13 47 17 9z"/>
<path d="M13212 1918 c-7 -7 -12 -19 -12 -27 1 -12 4 -11 12 4 6 11 16 23 22
27 7 5 8 8 1 8 -6 0 -16 -5 -23 -12z"/>
<path d="M13802 1765 c-20 -32 -34 -45 -52 -45 -25 -2 -24 -2 5 -15 30 -13 30
-13 48 28 10 23 25 50 34 59 10 12 12 18 4 18 -6 0 -24 -20 -39 -45z"/>
<path d="M12728 1463 c7 -3 16 -2 19 1 4 3 -2 6 -13 5 -11 0 -14 -3 -6 -6z"/>
<path d="M12435 1368 l-50 -53 53 50 c28 27 52 51 52 52 0 8 -9 -1 -55 -49z"/>
<path d="M12300 1280 c39 -13 58 -16 65 -8 7 7 6 9 -1 5 -7 -4 -28 0 -48 8
-19 8 -43 15 -53 15 -10 -1 7 -9 37 -20z"/>
<path d="M14083 615 c0 -8 4 -12 9 -9 5 3 6 10 3 15 -9 13 -12 11 -12 -6z"/>
</g>
</svg>
